<?xml version="1.0" encoding="UTF-8" standalone="no"?>
<svg
   xmlns:dc="http://purl.org/dc/elements/1.1/"
   xmlns:cc="http://creativecommons.org/ns#"
   xmlns:rdf="http://www.w3.org/1999/02/22-rdf-syntax-ns#"
   xmlns:svg="http://www.w3.org/2000/svg"
   xmlns="http://www.w3.org/2000/svg"
   xmlns:sodipodi="http://sodipodi.sourceforge.net/DTD/sodipodi-0.dtd"
   xmlns:inkscape="http://www.inkscape.org/namespaces/inkscape"
   inkscape:export-ydpi="44.303822"
   inkscape:export-xdpi="44.303822"
   inkscape:export-filename="/Users/jonathan/p/perso/r8bemu/resources/images/cassette_32x32.png"
   inkscape:version="1.0 (4035a4f, 2020-05-01)"
   sodipodi:docname="cassette.svg"
   viewBox="0 0 69.339394 69.000001"
   height="69"
   width="69.339394"
   id="svg94"
   version="1.1">
  <metadata
     id="metadata100">
    <rdf:RDF>
      <cc:Work
         rdf:about="">
        <dc:format>image/svg+xml</dc:format>
        <dc:type
           rdf:resource="http://purl.org/dc/dcmitype/StillImage" />
        <dc:title></dc:title>
      </cc:Work>
    </rdf:RDF>
  </metadata>
  <defs
     id="defs98" />
  <sodipodi:namedview
     fit-margin-bottom="0"
     fit-margin-right="0"
     fit-margin-left="0"
     fit-margin-top="0"
     inkscape:current-layer="g102"
     inkscape:window-maximized="1"
     inkscape:window-y="23"
     inkscape:window-x="0"
     inkscape:cy="20.000003"
     inkscape:cx="34.669694"
     inkscape:zoom="8.9999997"
     showgrid="false"
     id="namedview96"
     inkscape:window-height="1155"
     inkscape:window-width="1920"
     inkscape:pageshadow="2"
     inkscape:pageopacity="0"
     guidetolerance="10"
     gridtolerance="10"
     objecttolerance="10"
     borderopacity="1"
     bordercolor="#666666"
     pagecolor="#ffffff" />
  <g
     transform="translate(-7.9969742,-1.3333308)"
     id="g102"
     inkscape:label="Image"
     inkscape:groupmode="layer">
    <g
       transform="translate(0.00304269,14.499992)"
       id="g118">
      <path
         id="path134"
         d="m 26.597929,10.213446 q 0.428808,-0.192789 0.8567,-0.2874806 0.427891,-0.094692 1.176005,-0.2085462 0.748114,-0.1138546 1.491123,-0.1871221 0.743011,-0.073267 1.388621,-0.108096 0.645612,-0.034828 1.276431,-0.042687 0.630817,-0.00785 1.195939,-0.022156 0.565121,-0.014297 1.291186,-0.019161 0.726067,-0.00486 1.392734,-0.00486 0.666666,0 1.333333,0 0.666667,0 1.333334,0 0.666666,0 1.333333,0 0.666667,0 1.333333,0 0.666667,0 1.333334,0 0.666666,0 1.333333,0 0.666667,0 1.333333,0 0.666667,0 1.333334,0 0.666667,0 1.333333,0 0.666667,0 1.333334,0 0.666666,0 1.333333,0 0.666667,0 1.333333,0 0.666667,0 1.372279,0.053453 0.705612,0.053453 1.294397,0.096449 0.588784,0.042996 1.358654,0.2225276 0.769868,0.1795319 1.252746,0.2568628 0.482879,0.077329 0.950811,0.2716875 0.467932,0.194356 0.785647,0.367917 0.317716,0.173561 0.675677,0.426788 0.35796,0.253227 0.884579,0.632423 0.526619,0.379196 0.828423,0.633036 0.301804,0.253839 0.579244,0.500357 0.277438,0.246518 0.6909,0.633614 0.413461,0.387094 0.647981,0.61425 0.234519,0.227158 0.557165,0.611434 0.322646,0.384276 0.599364,0.678537 0.276718,0.294261 0.539012,0.671893 0.262294,0.377634 0.473934,0.734952 0.211638,0.35732 0.648334,1.073388 0.436696,0.716069 0.508654,1.097978 0.07196,0.381909 0.207366,1.042667 0.13541,0.660758 0.148603,1.063165 0.0132,0.402407 -0.07193,1.130327 -0.08512,0.727921 -0.205936,1.161621 -0.120814,0.4337 -0.225194,0.67708 -0.104373,0.24338 -0.365265,0.817608 -0.260889,0.574228 -0.36118,0.81288 -0.100293,0.238652 -0.515877,0.822244 -0.415586,0.583592 -0.720003,0.923669 -0.304416,0.340078 -0.609577,0.652963 -0.305163,0.312884 -0.616987,0.648889 -0.311817,0.336007 -0.645151,0.66934 -0.333333,0.333334 -0.671428,0.648922 -0.338093,0.315589 -0.637737,0.541541 -0.299644,0.225953 -0.757857,0.521527 -0.458215,0.295573 -0.867275,0.555392 -0.40906,0.25982 -0.984576,0.555638 -0.575517,0.295819 -0.814074,0.379104 -0.238556,0.08328 -0.697564,0.21377 -0.459006,0.13048 -1.252392,0.210096 -0.793384,0.07961 -1.436514,-0.0056 -0.64313,-0.08519 -1.04197,-0.210574 -0.398838,-0.125386 -0.869846,-0.35517 -0.471008,-0.229784 -0.963922,-0.460739 -0.492914,-0.230953 -0.920193,-0.51506 -0.42728,-0.284107 -0.746437,-0.531353 -0.319158,-0.247247 -0.699096,-0.538366 -0.379938,-0.291117 -0.63784,-0.516804 -0.257902,-0.225686 -0.61091,-0.554129 -0.353008,-0.328441 -0.685804,-0.635879 -0.332796,-0.307436 -0.722816,-0.718234 -0.390021,-0.410799 -0.579588,-0.621988 -0.189567,-0.211188 -0.477833,-0.623511 -0.288268,-0.412323 -0.515191,-0.797892 -0.226923,-0.385571 -0.464705,-0.79548 -0.237782,-0.409908 -0.390579,-0.959387 -0.152796,-0.549479 -0.245879,-1.150349 -0.09308,-0.600871 -0.214897,-1.288446 -0.121813,-0.687574 -0.153435,-1.283446 -0.03163,-0.595871 0.12752,-1.057091 0.159142,-0.461219 0.275094,-0.673304 0.115946,-0.212085 0.375182,-0.631512 0.259232,-0.419427 0.608135,-1.089127 0.348901,-0.669701 0.538123,-0.934737 0.18922,-0.265035 0.407981,-0.547028 0.218761,-0.281995 0.367607,-0.63932 0.148845,-0.357327 0.356653,-0.736823 0.207807,-0.379496 -0.254473,-0.435315 -0.462282,-0.05581 -1.088779,-0.09373 -0.626497,-0.03792 -1.431255,-0.08729 -0.804756,-0.04937 -1.245328,-0.06997 -0.440572,-0.0206 -1.139009,0.0036 -0.698437,0.0242 -1.513819,0.08573 -0.815381,0.06153 -1.30818,0.247997 -0.4928,0.186464 -0.713146,0.318076 -0.220347,0.131613 -0.338568,0.340128 -0.118227,0.208516 0.04813,0.488149 0.166356,0.279634 0.386492,0.607832 0.220136,0.328198 0.331529,0.50455 0.111387,0.176352 0.502764,0.790164 0.391372,0.613813 0.672836,1.196135 0.281466,0.582321 0.334676,0.72899 0.05321,0.146668 0.146938,0.736172 0.09373,0.589506 0.192098,1.443184 0.09837,0.853679 0.03492,1.210135 -0.06345,0.356455 -0.206534,0.937612 -0.14308,0.581156 -0.33832,1.175053 -0.195242,0.593899 -0.369911,0.931322 -0.174668,0.337422 -0.534696,0.865176 -0.360027,0.527754 -0.529692,0.780376 -0.169667,0.252623 -0.545169,0.676343 -0.375503,0.42372 -0.615944,0.658712 -0.240442,0.23499 -0.49655,0.513954 -0.256107,0.278963 -0.616529,0.652274 -0.360422,0.37334 -0.717259,0.678028 -0.356837,0.304686 -0.713792,0.622413 -0.356956,0.317727 -0.756448,0.551624 -0.399492,0.233897 -0.768055,0.477023 -0.368561,0.243125 -0.8241,0.523222 -0.455537,0.280096 -0.907921,0.38415 -0.452385,0.104053 -0.917235,0.196565 -0.46485,0.09251 -1.337053,0.156995 -0.872203,0.06448 -1.35326,0.102333 -0.481056,0.03785 -0.708901,-0.01907 -0.227846,-0.05692 -0.816187,-0.313832 -0.588342,-0.256918 -1.316652,-0.636422 -0.728311,-0.379504 -0.867506,-0.502528 -0.139196,-0.123027 -0.701693,-0.526267 -0.562499,-0.403241 -0.744316,-0.555668 -0.181819,-0.152425 -0.586325,-0.526213 -0.404507,-0.373787 -0.661171,-0.622487 -0.256664,-0.2487 -0.592664,-0.573555 -0.336,-0.324856 -0.637352,-0.637681 -0.301351,-0.312827 -0.648167,-0.739512 -0.346814,-0.426684 -0.500168,-0.671228 -0.153354,-0.244543 -0.421496,-0.730822 -0.268141,-0.486277 -0.572152,-1.010141 -0.304012,-0.523864 -0.49214,-0.892735 -0.188128,-0.368869 -0.278676,-0.877886 -0.09055,-0.509018 -0.205045,-1.357616 -0.114493,-0.848599 0.0085,-1.344391 0.123094,-0.495791 0.240791,-1.028292 0.117693,-0.5325 0.311003,-0.962496 0.193306,-0.429995 0.323988,-0.753676 0.13068,-0.32368 0.33341,-0.686779 0.202732,-0.363098 0.545847,-0.791978 0.343115,-0.428881 0.737081,-0.878471 0.393966,-0.449591 0.607722,-0.678394 0.213757,-0.228801 0.582874,-0.630924 0.369119,-0.402122 0.691604,-0.71427 0.322487,-0.312148 0.636464,-0.616746 0.313979,-0.304598 0.595882,-0.518603 0.281904,-0.214004 0.749773,-0.558395 0.467871,-0.34439 0.878616,-0.597181 0.410747,-0.252791 0.844097,-0.438992 0.43335,-0.1862 0.862158,-0.37899 m 3.179683,16.078794 q 0.682273,-0.02597 1.137816,-0.21415 0.455542,-0.18818 0.915989,-0.468849 0.460447,-0.280671 0.814288,-0.591116 0.353843,-0.310447 0.606857,-0.559353 0.253015,-0.248907 0.457146,-0.582646 0.204132,-0.33374 0.349704,-0.870729 0.145572,-0.536989 0.147001,-1.166788 0.0015,-0.629797 -0.03871,-1.025948 -0.04013,-0.396152 -0.295497,-0.930137 -0.255363,-0.533986 -0.476011,-0.962616 -0.220646,-0.428631 -0.406484,-0.607852 -0.185836,-0.179222 -0.636569,-0.657071 -0.450733,-0.477851 -0.660059,-0.619073 -0.209326,-0.141223 -0.678964,-0.333995 -0.469637,-0.192771 -1.146106,-0.285661 -0.67647,-0.09289 -1.436506,-0.0099 -0.760034,0.08297 -1.054056,0.132387 -0.294021,0.04941 -0.694205,0.341038 -0.400183,0.291631 -0.647744,0.529035 -0.247562,0.237404 -0.596652,0.5746 -0.34909,0.337196 -0.568455,0.810945 -0.219364,0.47375 -0.296148,0.808968 -0.07679,0.33522 -0.14468,1.014135 -0.06789,0.678916 0.04519,1.404953 0.11308,0.726038 0.17168,0.910628 0.0586,0.184591 0.380509,0.719344 0.321911,0.534754 0.571004,0.877128 0.249093,0.342376 0.679788,0.691618 0.430695,0.349242 0.691832,0.442214 0.261136,0.09297 0.77159,0.271688 0.510452,0.178715 0.932316,0.280955 0.421864,0.10224 1.104138,0.07627 m 26.679954,-0.006 q 0.769442,-0.01504 1.255975,-0.174331 0.486533,-0.159295 0.818039,-0.391353 0.331505,-0.232058 0.731507,-0.560764 0.400002,-0.328707 0.762966,-0.818508 0.362966,-0.489802 0.453162,-0.716632 0.0902,-0.226832 0.253905,-0.783624 0.163708,-0.556792 0.12976,-0.985735 -0.03395,-0.428943 -0.02187,-1.059195 0.01213,-0.630252 -0.235748,-1.214952 -0.247837,-0.584698 -0.417476,-0.853354 -0.169637,-0.268655 -0.359524,-0.531259 -0.189886,-0.262604 -0.610857,-0.671289 -0.420969,-0.408687 -0.816003,-0.735103 -0.395033,-0.326416 -0.629423,-0.358555 -0.234388,-0.03213 -0.916068,-0.02983 -0.68168,0.0023 -1.27833,0.09552 -0.596651,0.0932 -0.890263,0.186098 -0.293612,0.09289 -0.958831,0.445031 -0.665217,0.352133 -0.843081,0.495803 -0.177864,0.143669 -0.595752,0.53569 -0.417887,0.392023 -0.525495,0.6578 -0.107613,0.265778 -0.239269,0.784658 -0.131667,0.518878 -0.205655,1.063849 -0.074,0.544969 -0.09639,1.149248 -0.0224,0.604277 0.09627,0.937007 0.118654,0.332729 0.336047,0.7728 0.217385,0.44007 0.488829,0.767504 0.271444,0.327433 0.680348,0.761526 0.408903,0.434095 0.642198,0.592362 0.233296,0.158266 0.594262,0.261837 0.360967,0.103573 0.994144,0.248176 0.633178,0.144605 1.402618,0.129573"
         style="fill:#000000;fill-opacity:1;stroke-width:1.33333" />
      <path
         id="path126"
         d="m 9.5746503,2.3092422 q 0.2428476,-0.2929535 0.6668737,-0.5256523 0.424025,-0.2326988 1.011854,-0.2703672 0.587828,-0.037668 1.326644,-0.082707 0.738817,-0.045038 1.469404,-0.063868 0.730588,-0.01883 1.340581,-0.026072 0.609993,-0.00724 1.27666,-0.00724 0.666667,0 1.333334,0 0.666666,0 1.333333,0 0.666667,0 1.333333,0 0.666667,0 1.333334,0 0.666666,0 1.333333,0 0.666667,0 1.333333,0 0.666667,0 1.333334,0 0.666667,0 1.333333,0 0.666667,0 1.333334,0 0.666666,0 1.333333,0 0.666667,0 1.333333,0 0.666667,0 1.333334,0 0.666666,0 1.333333,0 0.666667,0 1.333333,0 0.666667,0 1.333334,0 0.666666,0 1.333333,0 0.666667,0 1.333334,0 0.666666,0 1.333333,0 0.666667,0 1.333333,0 0.666667,0 1.333334,0 0.666666,0 1.333333,0 0.666667,0 1.333333,0 0.666667,0 1.333334,0 0.666667,0 1.333333,0 0.666667,0 1.333334,0 0.666666,0 1.333333,0 0.666667,0 1.333333,0 0.666667,0 1.333334,0 0.666666,0 1.333333,0 0.666667,0 1.333333,0 0.666667,0 1.333334,0 0.666666,0 1.333333,0 0.666667,0 1.333334,0 0.666666,0 1.333333,0 0.666667,0 1.333333,0 0.666667,0 1.333334,0 0.666666,0 1.333333,0 0.666667,0 1.333333,0 0.666667,0 1.333334,0 0.666667,0 1.333333,0 0.666667,0 1.411834,0.024667 0.745168,0.024667 1.374125,0.089991 0.628959,0.065323 1.287551,0.1946558 0.658593,0.1293333 1.177764,0.3318498 0.51917,0.2025171 0.749104,0.3632395 0.229933,0.1607225 0.426616,0.4650406 0.196681,0.304318 0.274105,0.7293016 0.07743,0.4249836 0.183393,0.9600096 0.105974,0.5350262 0.193444,1.371451 0.08747,0.8364248 0.107934,1.4443127 0.02045,0.6078879 0.05125,1.298614 0.0308,0.6907262 0.03713,1.4320867 0.0063,0.741361 0.02081,1.321685 0.01448,0.580324 0.02637,1.27671 0.01189,0.696387 0.01189,1.363053 0,0.666667 0,1.333334 0,0.666666 0,1.333333 0,0.666667 0,1.333334 0,0.666666 0,1.333333 0,0.666667 0,1.333333 0,0.666667 0,1.333334 0,0.666666 0,1.333333 0,0.666667 0,1.333333 0,0.666667 0,1.333334 0,0.666667 0,1.333333 0,0.666667 0,1.333334 0,0.666666 0,1.333333 0,0.666667 0,1.333333 0,0.666667 0,1.333334 0,0.666666 0,1.333333 0,0.666667 -0.07189,1.404255 -0.07189,0.737588 -0.134892,1.367437 -0.063,0.629851 -0.195038,1.157232 -0.13204,0.527382 -0.348811,1.043318 -0.216773,0.515934 -0.380853,0.9842 -0.16408,0.468264 -0.303999,0.522998 -0.139919,0.05473 -0.653964,0.174502 -0.514044,0.119773 -1.337384,0.237674 -0.823341,0.117907 -1.360196,0.186692 -0.536856,0.06879 -1.153144,0.11856 -0.616288,0.04979 -1.360253,0.06251 -0.743965,0.01267 -1.388437,0.04333 -0.644469,0.03063 -1.311136,0.03063 -0.666666,0 -1.333333,0 -0.666667,0 -1.333333,0 -0.666667,0 -1.333334,0 -0.666666,0 -1.333333,0 -0.666667,0 -1.333333,0 -0.666667,0 -1.333334,0 -0.666667,0 -1.333333,0 -0.666667,0 -1.333334,0 -0.666666,0 -1.333333,0 -0.666667,0 -1.333333,0 -0.666667,0 -1.333334,0 -0.666666,0 -1.333333,0 -0.666667,0 -1.333333,0 -0.666667,0 -1.333334,0 -0.666666,0 -1.333333,0 -0.666667,0 -1.333334,0 -0.666666,0 -1.333333,0 -0.666667,0 -1.333333,0 -0.666667,0 -1.333334,0 -0.666666,0 -1.333333,0 -0.666667,0 -1.333333,0 -0.666667,0 -1.333334,0 -0.666667,0 -1.333333,0 -0.666667,0 -1.333334,0 -0.666666,0 -1.333333,0 -0.666667,0 -1.333333,0 -0.666667,0 -1.333334,0 -0.666666,0 -1.333333,0 -0.666667,0 -1.333333,0 -0.666667,0 -1.333334,0 -0.666666,0 -1.333333,0 -0.666667,0 -1.333334,0 -0.666666,0 -1.333333,0 -0.666667,0 -1.333333,0 -0.666667,0 -1.333334,0 -0.666666,0 -1.333333,0 -0.666667,0 -1.333333,0 -0.666667,0 -1.333334,0 -0.666667,0 -1.333333,0 -0.666667,0 -1.403455,-0.03281 Q 13.193081,41.267722 12.54771,41.186273 11.902339,41.104823 11.425318,40.9887 10.948308,40.872567 10.395633,40.73026 9.8429579,40.587955 9.5614444,40.35764 9.279931,40.127324 9.0419772,39.838608 8.8040233,39.549893 8.3973481,39.060012 7.990673,38.570131 7.993961,37.998444 q 0.00329,-0.571688 0.00467,-1.285066 0.00137,-0.713377 0.00137,-1.380044 0,-0.666666 0,-1.333333 0,-0.666667 0,-1.333333 0,-0.666667 0,-1.333334 0,-0.666666 0,-1.333333 0,-0.666667 0,-1.333333 0,-0.666667 0,-1.333334 0,-0.666666 0,-1.333333 0,-0.666667 0,-1.333334 0,-0.666666 0,-1.333333 0,-0.666667 0,-1.333333 0,-0.666667 0,-1.333334 0,-0.666666 0,-1.333333 0,-0.666667 0,-1.333333 0,-0.666667 0,-1.333334 0,-0.666667 0,-1.333333 0,-0.666667 0,-1.333334 0,-0.666666 0,-1.333333 0,-0.666667 0,-1.333333 0,-0.666667 0,-1.333334 0,-0.6666664 0,-1.3333331 0,-0.6666667 0.054197,-1.2729623 Q 8.1083948,6.787409 8.1354819,6.2069507 8.1625691,5.6264924 8.2674225,5.0657934 8.372276,4.5050943 8.5141008,3.9885521 8.6559257,3.4720101 8.9938641,3.0371029 9.3318027,2.6021957 9.5746503,2.3092422 M 71.096922,37.092012 q 0.641427,-0.04357 0.976175,-0.258396 0.334748,-0.214828 0.497499,-0.70278 0.16275,-0.487952 0.340086,-0.992174 0.177338,-0.504221 0.245166,-1.175097 0.06783,-0.670875 0.09205,-1.252477 0.02423,-0.581603 0.03688,-1.250922 0.01267,-0.66932 0.03061,-1.398076 0.01794,-0.728756 0.01794,-1.395422 0,-0.666667 0,-1.333334 0,-0.666666 0,-1.333333 0,-0.666667 0,-1.333334 0,-0.666666 0,-1.333333 0,-0.666667 0,-1.333333 0,-0.666667 0,-1.333334 0,-0.666666 0,-1.333333 0,-0.666667 0,-1.333333 0,-0.666667 0,-1.333334 0,-0.666667 0,-1.333333 0,-0.666667 0,-1.333334 0,-0.666666 0,-1.333333 0,-0.666667 0,-1.333333 0,-0.666667 -0.01613,-1.317392 Q 73.301069,9.3652171 73.250929,8.8159424 73.200788,8.2666677 73.007833,7.6026266 72.814877,6.9385854 72.624068,6.6666061 72.433258,6.3946267 72.205868,6.1457887 71.978477,5.8969506 71.366225,5.7672363 70.753972,5.637522 69.981453,5.564643 69.208933,5.491764 68.520614,5.4306007 q -0.688317,-0.061163 -1.318879,-0.075851 -0.630562,-0.014688 -1.249481,-0.018052 -0.618919,-0.00336 -1.285585,-0.00336 -0.666667,0 -1.333334,0 -0.666666,0 -1.333333,0 -0.666667,0 -1.333333,0 -0.666667,0 -1.333334,0 -0.666667,0 -1.333333,0 -0.666667,0 -1.333334,0 -0.666666,0 -1.333333,0 -0.666667,0 -1.333333,0 -0.666667,0 -1.333334,0 -0.666666,0 -1.333333,0 -0.666667,0 -1.333333,0 -0.666667,0 -1.333334,0 -0.666666,0 -1.333333,0 -0.666667,0 -1.333334,0 -0.666666,0 -1.333333,0 -0.666667,0 -1.333333,0 -0.666667,0 -1.333334,0 -0.666666,0 -1.333333,0 -0.666667,0 -1.333333,0 -0.666667,0 -1.333334,0 -0.666667,0 -1.333333,0 -0.666667,0 -1.333334,0 -0.666666,0 -1.333333,0 -0.666667,0 -1.333333,0 -0.666667,0 -1.333334,0 -0.666666,0 -1.333333,0 -0.666667,0 -1.333333,0 -0.666667,0 -1.333334,0 -0.666666,0 -1.333333,0 -0.666667,0 -1.333334,0 -0.666666,0 -1.333333,0 -0.666667,0 -1.333333,0 -0.666667,0 -1.333334,0 -0.666666,0 -1.333333,0 -0.666667,0 -1.333333,0 -0.666667,0 -1.428243,0.02839 -0.761576,0.02839 -1.192951,0.067609 -0.431376,0.039218 -1.047072,0.196431 -0.615697,0.1572126 -1.071262,0.2963179 -0.455566,0.1391054 -0.546134,0.4672682 -0.09057,0.3281629 -0.191621,0.9217964 -0.101054,0.5936336 -0.172737,1.3124895 -0.07168,0.7188559 -0.132986,1.2395934 -0.0613,0.5207379 -0.08945,1.3657629 -0.02814,0.845025 -0.07785,1.474684 Q 12,13.333334 12,14 q 0,0.666667 0,1.333334 0,0.666666 0,1.333333 0,0.666667 0,1.333334 0,0.666666 0,1.333333 0,0.666667 0,1.333333 0,0.666667 0,1.333334 0,0.666666 0,1.333333 0,0.666667 0,1.333333 0,0.666667 0,1.333334 0,0.666667 0,1.333333 0,0.666667 0,1.333334 0,0.666666 0,1.333333 0,0.666667 0.02315,1.291041 0.02315,0.624374 0.10138,1.394519 0.07823,0.770145 0.179441,1.525927 0.101213,0.755781 0.160427,1.125658 0.05921,0.369879 0.140245,0.767346 0.08103,0.397466 0.399704,0.497029 0.318673,0.09956 1.15027,0.237604 0.831596,0.138041 1.250828,0.169405 0.419232,0.03136 0.993877,0.08908 0.574644,0.05771 1.391776,0.08933 0.817132,0.03161 1.513779,0.07733 0.696646,0.04572 1.36255,0.05739 0.665905,0.01167 1.332572,0.01167 0.666666,0 1.333333,0 0.666667,0 1.333333,0 0.666667,0 1.333334,0 0.666667,0 1.333333,0 0.666667,0 1.333334,0 0.666666,0 1.333333,0 0.666667,0 1.333333,0 0.666667,0 1.333334,0 0.666666,0 1.333333,0 0.666667,0 1.333333,0 0.666667,0 1.333334,0 0.666666,0 1.333333,0 0.666667,0 1.333334,0 0.666666,0 1.333333,0 0.666667,0 1.333333,0 0.666667,0 1.333334,0 0.666666,0 1.333333,0 0.666667,0 1.333333,0 0.666667,0 1.333334,0 0.666667,0 1.333333,0 0.666667,0 1.333334,0 0.666666,0 1.333333,0 0.666667,0 1.333333,0 0.666667,0 1.333334,0 0.666666,0 1.333333,0 0.666667,0 1.333333,0 0.666667,0 1.333334,0 0.666666,0 1.333333,0 0.666667,0 1.333334,0 0.666666,0 1.333333,0 0.666667,0 1.333333,0 0.666667,0 1.333334,0 0.666666,0 1.333333,0 0.666667,0 1.410276,-0.002 0.743608,-0.002 1.166119,-0.03432 0.42251,-0.03227 1.150804,-0.09683 0.728295,-0.06456 1.369721,-0.10812"
         style="fill:#000000;fill-opacity:1;stroke-width:1.33333" />
    </g>
  </g>
</svg>
