<?xml version="1.0" encoding="UTF-8" standalone="no"?>
<svg
   xmlns:dc="http://purl.org/dc/elements/1.1/"
   xmlns:cc="http://creativecommons.org/ns#"
   xmlns:rdf="http://www.w3.org/1999/02/22-rdf-syntax-ns#"
   xmlns:svg="http://www.w3.org/2000/svg"
   xmlns="http://www.w3.org/2000/svg"
   xmlns:sodipodi="http://sodipodi.sourceforge.net/DTD/sodipodi-0.dtd"
   xmlns:inkscape="http://www.inkscape.org/namespaces/inkscape"
   inkscape:export-ydpi="72"
   inkscape:export-xdpi="72"
   inkscape:export-filename="/Users/jonathan/p/perso/r8bemu/resources/images/maximized_32x32.png"
   inkscape:version="1.0 (4035a4f, 2020-05-01)"
   sodipodi:docname="maximized.svg"
   viewBox="0 0 42.666668 42.666668"
   height="42.666668"
   width="42.666668"
   id="svg128"
   version="1.1">
  <metadata
     id="metadata134">
    <rdf:RDF>
      <cc:Work
         rdf:about="">
        <dc:format>image/svg+xml</dc:format>
        <dc:type
           rdf:resource="http://purl.org/dc/dcmitype/StillImage" />
        <dc:title></dc:title>
      </cc:Work>
    </rdf:RDF>
  </metadata>
  <defs
     id="defs132" />
  <sodipodi:namedview
     inkscape:current-layer="g140"
     inkscape:window-maximized="0"
     inkscape:window-y="23"
     inkscape:window-x="0"
     inkscape:cy="21.333334"
     inkscape:cx="21.333334"
     inkscape:zoom="17.226562"
     showgrid="false"
     id="namedview130"
     inkscape:window-height="946"
     inkscape:window-width="1684"
     inkscape:pageshadow="2"
     inkscape:pageopacity="0"
     guidetolerance="10"
     gridtolerance="10"
     objecttolerance="10"
     borderopacity="1"
     bordercolor="#666666"
     pagecolor="#ffffff" />
  <g
     id="g136"
     inkscape:label="Image"
     inkscape:groupmode="layer">
    <g
       style="opacity:1"
       id="g140">
      <path
         id="path1924"
         d="m 36.000001,36.000001 h 1.333333 l -0.333333,1 -1,0.333333"
         style="fill:#000000;fill-opacity:1;stroke-width:1.33333" />
      <path
         id="path1922"
         d="m 34.666668,36.000001 h 1.333333 v 1.333333 h -1.333333"
         style="fill:#000000;fill-opacity:1;stroke-width:1.33333" />
      <path
         id="path1920"
         d="m 33.333334,36.000001 h 1.333334 v 1.333333 h -1.333334"
         style="fill:#000000;fill-opacity:1;stroke-width:1.33333" />
      <path
         id="path1918"
         d="m 32.000001,36.000001 h 1.333333 v 1.333333 h -1.333333"
         style="fill:#000000;fill-opacity:1;stroke-width:1.33333" />
      <path
         id="path1916"
         d="m 30.666668,36.000001 h 1.333333 v 1.333333 h -1.333333"
         style="fill:#000000;fill-opacity:1;stroke-width:1.33333" />
      <path
         id="path1914"
         d="m 29.333334,36.000001 h 1.333334 v 1.333333 h -1.333334"
         style="fill:#000000;fill-opacity:1;stroke-width:1.33333" />
      <path
         id="path1912"
         d="m 28.000001,36.000001 h 1.333333 v 1.333333 h -1.333333"
         style="fill:#000000;fill-opacity:1;stroke-width:1.33333" />
      <path
         id="path1910"
         d="m 26.666668,36.000001 h 1.333333 v 1.333333 h -1.333333"
         style="fill:#000000;fill-opacity:1;stroke-width:1.33333" />
      <path
         id="path1908"
         d="m 25.333334,36.000001 h 1.333334 v 1.333333 h -1.333334"
         style="fill:#000000;fill-opacity:1;stroke-width:1.33333" />
      <path
         id="path1906"
         d="m 24.000001,36.000001 h 1.333333 v 1.333333 l -1,-0.333333"
         style="fill:#000000;fill-opacity:1;stroke-width:1.33333" />
      <path
         id="path1896"
         d="m 17.333334,36.000001 h 1.333333 l -0.333333,1 -1,0.333333"
         style="fill:#000000;fill-opacity:1;stroke-width:1.33333" />
      <path
         id="path1894"
         d="m 16,36.000001 h 1.333334 v 1.333333 H 16"
         style="fill:#000000;fill-opacity:1;stroke-width:1.33333" />
      <path
         id="path1892"
         d="M 14.666667,36.000001 H 16 v 1.333333 h -1.333333"
         style="fill:#000000;fill-opacity:1;stroke-width:1.33333" />
      <path
         id="path1890"
         d="m 13.333334,36.000001 h 1.333333 v 1.333333 h -1.333333"
         style="fill:#000000;fill-opacity:1;stroke-width:1.33333" />
      <path
         id="path1888"
         d="m 12,36.000001 h 1.333334 v 1.333333 H 12"
         style="fill:#000000;fill-opacity:1;stroke-width:1.33333" />
      <path
         id="path1886"
         d="M 10.666667,36.000001 H 12 v 1.333333 h -1.333333"
         style="fill:#000000;fill-opacity:1;stroke-width:1.33333" />
      <path
         id="path1884"
         d="m 9.3333336,36.000001 h 1.3333334 v 1.333333 H 9.3333336"
         style="fill:#000000;fill-opacity:1;stroke-width:1.33333" />
      <path
         id="path1882"
         d="m 8.0000002,36.000001 h 1.3333334 v 1.333333 H 8.0000002"
         style="fill:#000000;fill-opacity:1;stroke-width:1.33333" />
      <path
         id="path1880"
         d="m 6.6666669,36.000001 h 1.3333333 v 1.333333 H 6.6666669"
         style="fill:#000000;fill-opacity:1;stroke-width:1.33333" />
      <path
         id="path1878"
         d="m 5.3333335,36.000001 h 1.3333334 v 1.333333 L 5.6666668,37.000001"
         style="fill:#000000;fill-opacity:1;stroke-width:1.33333" />
      <path
         id="path1860"
         d="m 36.000001,34.666668 h 1.333333 v 1.333333 h -1.333333"
         style="fill:#000000;fill-opacity:1;stroke-width:1.33333" />
      <path
         id="path1858"
         d="m 34.666668,34.666668 h 1.333333 v 1.333333 h -1.333333"
         style="fill:#000000;fill-opacity:1;stroke-width:1.33333" />
      <path
         id="path1856"
         d="m 33.333334,34.666668 h 1.333334 v 1.333333 h -1.333334"
         style="fill:#000000;fill-opacity:1;stroke-width:1.33333" />
      <path
         id="path1854"
         d="m 32.000001,34.666668 h 1.333333 v 1.333333 h -1.333333"
         style="fill:#000000;fill-opacity:1;stroke-width:1.33333" />
      <path
         id="path1852"
         d="m 30.666668,34.666668 h 1.333333 v 1.333333 h -1.333333"
         style="fill:#000000;fill-opacity:1;stroke-width:1.33333" />
      <path
         id="path1850"
         d="m 29.333334,34.666668 h 1.333334 v 1.333333 h -1.333334"
         style="fill:#000000;fill-opacity:1;stroke-width:1.33333" />
      <path
         id="path1848"
         d="m 28.000001,34.666668 h 1.333333 v 1.333333 h -1.333333"
         style="fill:#000000;fill-opacity:1;stroke-width:1.33333" />
      <path
         id="path1846"
         d="m 26.666668,34.666668 h 1.333333 v 1.333333 h -1.333333"
         style="fill:#000000;fill-opacity:1;stroke-width:1.33333" />
      <path
         id="path1844"
         d="m 25.666667,35.000001 1.000001,-0.333333 v 1.333333 h -1.333334"
         style="fill:#000000;fill-opacity:1;stroke-width:1.33333" />
      <path
         id="path1842"
         d="m 24.333334,35.000001 0.666667,-0.666667 0.666666,0.666667 -0.333333,1 h -1.333333"
         style="fill:#000000;fill-opacity:1;stroke-width:1.33333" />
      <path
         id="path1832"
         d="m 17.000001,35.000001 0.666666,-0.666667 0.666667,0.666667 0.333333,1 h -1.333333"
         style="fill:#000000;fill-opacity:1;stroke-width:1.33333" />
      <path
         id="path1830"
         d="m 16,34.666668 1.000001,0.333333 0.333333,1 H 16"
         style="fill:#000000;fill-opacity:1;stroke-width:1.33333" />
      <path
         id="path1828"
         d="M 14.666667,34.666668 H 16 v 1.333333 h -1.333333"
         style="fill:#000000;fill-opacity:1;stroke-width:1.33333" />
      <path
         id="path1826"
         d="m 13.333334,34.666668 h 1.333333 v 1.333333 h -1.333333"
         style="fill:#000000;fill-opacity:1;stroke-width:1.33333" />
      <path
         id="path1824"
         d="m 12,34.666668 h 1.333334 v 1.333333 H 12"
         style="fill:#000000;fill-opacity:1;stroke-width:1.33333" />
      <path
         id="path1822"
         d="M 10.666667,34.666668 H 12 v 1.333333 h -1.333333"
         style="fill:#000000;fill-opacity:1;stroke-width:1.33333" />
      <path
         id="path1820"
         d="m 9.3333336,34.666668 h 1.3333334 v 1.333333 H 9.3333336"
         style="fill:#000000;fill-opacity:1;stroke-width:1.33333" />
      <path
         id="path1818"
         d="m 8.0000002,34.666668 h 1.3333334 v 1.333333 H 8.0000002"
         style="fill:#000000;fill-opacity:1;stroke-width:1.33333" />
      <path
         id="path1816"
         d="m 6.6666669,34.666668 h 1.3333333 v 1.333333 H 6.6666669"
         style="fill:#000000;fill-opacity:1;stroke-width:1.33333" />
      <path
         id="path1814"
         d="m 5.3333335,34.666668 h 1.3333334 v 1.333333 H 5.3333335"
         style="fill:#000000;fill-opacity:1;stroke-width:1.33333" />
      <path
         id="path1796"
         d="m 36.000001,33.333334 h 1.333333 v 1.333334 h -1.333333"
         style="fill:#000000;fill-opacity:1;stroke-width:1.33333" />
      <path
         id="path1794"
         d="m 34.666668,33.333334 h 1.333333 v 1.333334 h -1.333333"
         style="fill:#000000;fill-opacity:1;stroke-width:1.33333" />
      <path
         id="path1792"
         d="m 33.666668,33.666668 1,-0.333334 v 1.333334 h -1.333334"
         style="fill:#000000;fill-opacity:1;stroke-width:1.33333" />
      <path
         id="path1790"
         d="m 32.000001,33.333334 1,-0.333333 0.666667,0.666667 -0.333334,1 h -1.333333"
         style="fill:#000000;fill-opacity:1;stroke-width:1.33333" />
      <path
         id="path1788"
         d="m 30.666668,33.333334 h 1.333333 v 1.333334 h -1.333333"
         style="fill:#000000;fill-opacity:1;stroke-width:1.33333" />
      <path
         id="path1786"
         d="m 29.333334,33.333334 h 1.333334 v 1.333334 h -1.333334"
         style="fill:#000000;fill-opacity:1;stroke-width:1.33333" />
      <path
         id="path1784"
         d="m 28.000001,33.333334 h 1.333333 v 1.333334 h -1.333333"
         style="fill:#000000;fill-opacity:1;stroke-width:1.33333" />
      <path
         id="path1782"
         d="m 26.666668,33.333334 h 1.333333 v 1.333334 h -1.333333"
         style="fill:#000000;fill-opacity:1;stroke-width:1.33333" />
      <path
         id="path1780"
         d="m 25.666667,33.666668 1.000001,-0.333334 v 1.333334 l -1.000001,0.333333 -0.666666,-0.666667"
         style="fill:#000000;fill-opacity:1;stroke-width:1.33333" />
      <path
         id="path1766"
         d="m 16,33.333334 1.000001,0.333334 0.666666,0.666666 -0.666666,0.666667 L 16,34.666668"
         style="fill:#000000;fill-opacity:1;stroke-width:1.33333" />
      <path
         id="path1764"
         d="M 14.666667,33.333334 H 16 v 1.333334 h -1.333333"
         style="fill:#000000;fill-opacity:1;stroke-width:1.33333" />
      <path
         id="path1762"
         d="m 13.333334,33.333334 h 1.333333 v 1.333334 h -1.333333"
         style="fill:#000000;fill-opacity:1;stroke-width:1.33333" />
      <path
         id="path1760"
         d="m 12,33.333334 h 1.333334 v 1.333334 H 12"
         style="fill:#000000;fill-opacity:1;stroke-width:1.33333" />
      <path
         id="path1758"
         d="M 10.666667,33.333334 H 12 v 1.333334 h -1.333333"
         style="fill:#000000;fill-opacity:1;stroke-width:1.33333" />
      <path
         id="path1756"
         d="m 9.0000003,33.666668 0.6666667,-0.666667 1,0.333333 v 1.333334 H 9.3333336"
         style="fill:#000000;fill-opacity:1;stroke-width:1.33333" />
      <path
         id="path1754"
         d="m 8.0000002,33.333334 1.0000001,0.333334 0.3333333,1 H 8.0000002"
         style="fill:#000000;fill-opacity:1;stroke-width:1.33333" />
      <path
         id="path1752"
         d="m 6.6666669,33.333334 h 1.3333333 v 1.333334 H 6.6666669"
         style="fill:#000000;fill-opacity:1;stroke-width:1.33333" />
      <path
         id="path1750"
         d="m 5.3333335,33.333334 h 1.3333334 v 1.333334 H 5.3333335"
         style="fill:#000000;fill-opacity:1;stroke-width:1.33333" />
      <path
         id="path1732"
         d="m 36.000001,32.000001 h 1.333333 v 1.333333 h -1.333333"
         style="fill:#000000;fill-opacity:1;stroke-width:1.33333" />
      <path
         id="path1730"
         d="m 34.666668,32.000001 h 1.333333 v 1.333333 h -1.333333"
         style="fill:#000000;fill-opacity:1;stroke-width:1.33333" />
      <path
         id="path1728"
         d="m 33.333334,32.000001 h 1.333334 v 1.333333 l -1,0.333334 -0.666667,-0.666667"
         style="fill:#000000;fill-opacity:1;stroke-width:1.33333" />
      <path
         id="path1690"
         d="m 8.0000002,32.000001 h 1.3333334 l 0.3333334,1 -0.6666667,0.666667 -1.0000001,-0.333334"
         style="fill:#000000;fill-opacity:1;stroke-width:1.33333" />
      <path
         id="path1688"
         d="m 6.6666669,32.000001 h 1.3333333 v 1.333333 H 6.6666669"
         style="fill:#000000;fill-opacity:1;stroke-width:1.33333" />
      <path
         id="path1686"
         d="m 5.3333335,32.000001 h 1.3333334 v 1.333333 H 5.3333335"
         style="fill:#000000;fill-opacity:1;stroke-width:1.33333" />
      <path
         id="path1668"
         d="m 36.000001,30.666668 h 1.333333 v 1.333333 h -1.333333"
         style="fill:#000000;fill-opacity:1;stroke-width:1.33333" />
      <path
         id="path1666"
         d="m 34.666668,30.666668 h 1.333333 v 1.333333 h -1.333333"
         style="fill:#000000;fill-opacity:1;stroke-width:1.33333" />
      <path
         id="path1664"
         d="m 33.333334,30.666668 h 1.333334 v 1.333333 h -1.333334"
         style="fill:#000000;fill-opacity:1;stroke-width:1.33333" />
      <path
         id="path1626"
         d="m 8.0000002,30.666668 h 1.3333334 v 1.333333 H 8.0000002"
         style="fill:#000000;fill-opacity:1;stroke-width:1.33333" />
      <path
         id="path1624"
         d="m 6.6666669,30.666668 h 1.3333333 v 1.333333 H 6.6666669"
         style="fill:#000000;fill-opacity:1;stroke-width:1.33333" />
      <path
         id="path1622"
         d="m 5.3333335,30.666668 h 1.3333334 v 1.333333 H 5.3333335"
         style="fill:#000000;fill-opacity:1;stroke-width:1.33333" />
      <path
         id="path1604"
         d="m 36.000001,29.333334 h 1.333333 v 1.333334 h -1.333333"
         style="fill:#000000;fill-opacity:1;stroke-width:1.33333" />
      <path
         id="path1602"
         d="m 34.666668,29.333334 h 1.333333 v 1.333334 h -1.333333"
         style="fill:#000000;fill-opacity:1;stroke-width:1.33333" />
      <path
         id="path1600"
         d="m 33.333334,29.333334 h 1.333334 v 1.333334 h -1.333334"
         style="fill:#000000;fill-opacity:1;stroke-width:1.33333" />
      <path
         id="path1562"
         d="m 8.0000002,29.333334 h 1.3333334 v 1.333334 H 8.0000002"
         style="fill:#000000;fill-opacity:1;stroke-width:1.33333" />
      <path
         id="path1560"
         d="m 6.6666669,29.333334 h 1.3333333 v 1.333334 H 6.6666669"
         style="fill:#000000;fill-opacity:1;stroke-width:1.33333" />
      <path
         id="path1558"
         d="m 5.3333335,29.333334 h 1.3333334 v 1.333334 H 5.3333335"
         style="fill:#000000;fill-opacity:1;stroke-width:1.33333" />
      <path
         id="path1540"
         d="m 36.000001,28.000001 h 1.333333 v 1.333333 h -1.333333"
         style="fill:#000000;fill-opacity:1;stroke-width:1.33333" />
      <path
         id="path1538"
         d="m 34.666668,28.000001 h 1.333333 v 1.333333 h -1.333333"
         style="fill:#000000;fill-opacity:1;stroke-width:1.33333" />
      <path
         id="path1536"
         d="m 33.333334,28.000001 h 1.333334 v 1.333333 h -1.333334"
         style="fill:#000000;fill-opacity:1;stroke-width:1.33333" />
      <path
         id="path1498"
         d="m 8.0000002,28.000001 h 1.3333334 v 1.333333 H 8.0000002"
         style="fill:#000000;fill-opacity:1;stroke-width:1.33333" />
      <path
         id="path1496"
         d="m 6.6666669,28.000001 h 1.3333333 v 1.333333 H 6.6666669"
         style="fill:#000000;fill-opacity:1;stroke-width:1.33333" />
      <path
         id="path1494"
         d="m 5.3333335,28.000001 h 1.3333334 v 1.333333 H 5.3333335"
         style="fill:#000000;fill-opacity:1;stroke-width:1.33333" />
      <path
         id="path1476"
         d="m 36.000001,26.666668 h 1.333333 v 1.333333 h -1.333333"
         style="fill:#000000;fill-opacity:1;stroke-width:1.33333" />
      <path
         id="path1474"
         d="m 34.666668,26.666668 h 1.333333 v 1.333333 h -1.333333"
         style="fill:#000000;fill-opacity:1;stroke-width:1.33333" />
      <path
         id="path1472"
         d="m 33.333334,26.666668 h 1.333334 v 1.333333 h -1.333334"
         style="fill:#000000;fill-opacity:1;stroke-width:1.33333" />
      <path
         id="path1434"
         d="m 8.0000002,26.666668 h 1.3333334 v 1.333333 H 8.0000002"
         style="fill:#000000;fill-opacity:1;stroke-width:1.33333" />
      <path
         id="path1432"
         d="m 6.6666669,26.666668 h 1.3333333 v 1.333333 H 6.6666669"
         style="fill:#000000;fill-opacity:1;stroke-width:1.33333" />
      <path
         id="path1430"
         d="m 5.3333335,26.666668 h 1.3333334 v 1.333333 H 5.3333335"
         style="fill:#000000;fill-opacity:1;stroke-width:1.33333" />
      <path
         id="path1412"
         d="m 36.000001,25.333334 h 1.333333 v 1.333334 h -1.333333"
         style="fill:#000000;fill-opacity:1;stroke-width:1.33333" />
      <path
         id="path1410"
         d="m 35.000001,25.666667 1,-0.333333 v 1.333334 h -1.333333"
         style="fill:#000000;fill-opacity:1;stroke-width:1.33333" />
      <path
         id="path1408"
         d="m 33.666668,25.666667 0.666666,-0.666666 0.666667,0.666666 -0.333333,1.000001 h -1.333334"
         style="fill:#000000;fill-opacity:1;stroke-width:1.33333" />
      <path
         id="path1370"
         d="m 7.6666669,25.666667 0.6666667,-0.666666 0.6666667,0.666666 0.3333333,1.000001 H 8.0000002"
         style="fill:#000000;fill-opacity:1;stroke-width:1.33333" />
      <path
         id="path1368"
         d="m 6.6666669,25.333334 1,0.333333 0.3333333,1.000001 H 6.6666669"
         style="fill:#000000;fill-opacity:1;stroke-width:1.33333" />
      <path
         id="path1366"
         d="m 5.3333335,25.333334 h 1.3333334 v 1.333334 H 5.3333335"
         style="fill:#000000;fill-opacity:1;stroke-width:1.33333" />
      <path
         id="path1348"
         d="m 36.000001,24.000001 1,0.333333 0.333333,1 h -1.333333"
         style="fill:#000000;fill-opacity:1;stroke-width:1.33333" />
      <path
         id="path1346"
         d="m 35.000001,24.333334 1,-0.333333 v 1.333333 l -1,0.333333 -0.666667,-0.666666"
         style="fill:#000000;fill-opacity:1;stroke-width:1.33333" />
      <path
         id="path1304"
         d="m 6.6666669,24.000001 1,0.333333 0.6666667,0.666667 -0.6666667,0.666666 -1,-0.333333"
         style="fill:#000000;fill-opacity:1;stroke-width:1.33333" />
      <path
         id="path1302"
         d="m 5.6666668,24.333334 1.0000001,-0.333333 v 1.333333 H 5.3333335"
         style="fill:#000000;fill-opacity:1;stroke-width:1.33333" />
      <path
         id="path1028"
         d="m 36.000001,17.333334 h 1.333333 l -0.333333,1 -1,0.333333"
         style="fill:#000000;fill-opacity:1;stroke-width:1.33333" />
      <path
         id="path1026"
         d="m 34.333334,17.666667 0.666667,-0.666666 1,0.333333 v 1.333333 l -1,-0.333333"
         style="fill:#000000;fill-opacity:1;stroke-width:1.33333" />
      <path
         id="path984"
         d="m 6.6666669,17.333334 1,-0.333333 0.6666667,0.666666 -0.6666667,0.666667 -1,0.333333"
         style="fill:#000000;fill-opacity:1;stroke-width:1.33333" />
      <path
         id="path982"
         d="m 5.3333335,17.333334 h 1.3333334 v 1.333333 L 5.6666668,18.333334"
         style="fill:#000000;fill-opacity:1;stroke-width:1.33333" />
      <path
         id="path964"
         d="m 36.000001,16 h 1.333333 v 1.333334 h -1.333333"
         style="fill:#000000;fill-opacity:1;stroke-width:1.33333" />
      <path
         id="path962"
         d="m 34.666668,16 h 1.333333 v 1.333334 l -1,-0.333333"
         style="fill:#000000;fill-opacity:1;stroke-width:1.33333" />
      <path
         id="path960"
         d="m 33.333334,16 h 1.333334 l 0.333333,1.000001 -0.666667,0.666666 -0.666666,-0.666666"
         style="fill:#000000;fill-opacity:1;stroke-width:1.33333" />
      <path
         id="path922"
         d="M 8.0000002,16 H 9.3333336 L 9.0000003,17.000001 8.3333336,17.666667 7.6666669,17.000001"
         style="fill:#000000;fill-opacity:1;stroke-width:1.33333" />
      <path
         id="path920"
         d="m 6.6666669,16 h 1.3333333 l -0.3333333,1.000001 -1,0.333333"
         style="fill:#000000;fill-opacity:1;stroke-width:1.33333" />
      <path
         id="path918"
         d="m 5.3333335,16 h 1.3333334 v 1.333334 H 5.3333335"
         style="fill:#000000;fill-opacity:1;stroke-width:1.33333" />
      <path
         id="path900"
         d="m 36.000001,14.666667 h 1.333333 V 16 h -1.333333"
         style="fill:#000000;fill-opacity:1;stroke-width:1.33333" />
      <path
         id="path898"
         d="m 34.666668,14.666667 h 1.333333 V 16 h -1.333333"
         style="fill:#000000;fill-opacity:1;stroke-width:1.33333" />
      <path
         id="path896"
         d="m 33.333334,14.666667 h 1.333334 V 16 h -1.333334"
         style="fill:#000000;fill-opacity:1;stroke-width:1.33333" />
      <path
         id="path858"
         d="M 8.0000002,14.666667 H 9.3333336 V 16 H 8.0000002"
         style="fill:#000000;fill-opacity:1;stroke-width:1.33333" />
      <path
         id="path856"
         d="M 6.6666669,14.666667 H 8.0000002 V 16 H 6.6666669"
         style="fill:#000000;fill-opacity:1;stroke-width:1.33333" />
      <path
         id="path854"
         d="M 5.3333335,14.666667 H 6.6666669 V 16 H 5.3333335"
         style="fill:#000000;fill-opacity:1;stroke-width:1.33333" />
      <path
         id="path836"
         d="m 36.000001,13.333334 h 1.333333 v 1.333333 h -1.333333"
         style="fill:#000000;fill-opacity:1;stroke-width:1.33333" />
      <path
         id="path834"
         d="m 34.666668,13.333334 h 1.333333 v 1.333333 h -1.333333"
         style="fill:#000000;fill-opacity:1;stroke-width:1.33333" />
      <path
         id="path832"
         d="m 33.333334,13.333334 h 1.333334 v 1.333333 h -1.333334"
         style="fill:#000000;fill-opacity:1;stroke-width:1.33333" />
      <path
         id="path794"
         d="m 8.0000002,13.333334 h 1.3333334 v 1.333333 H 8.0000002"
         style="fill:#000000;fill-opacity:1;stroke-width:1.33333" />
      <path
         id="path792"
         d="m 6.6666669,13.333334 h 1.3333333 v 1.333333 H 6.6666669"
         style="fill:#000000;fill-opacity:1;stroke-width:1.33333" />
      <path
         id="path790"
         d="m 5.3333335,13.333334 h 1.3333334 v 1.333333 H 5.3333335"
         style="fill:#000000;fill-opacity:1;stroke-width:1.33333" />
      <path
         id="path772"
         d="m 36.000001,12 h 1.333333 v 1.333334 h -1.333333"
         style="fill:#000000;fill-opacity:1;stroke-width:1.33333" />
      <path
         id="path770"
         d="m 34.666668,12 h 1.333333 v 1.333334 h -1.333333"
         style="fill:#000000;fill-opacity:1;stroke-width:1.33333" />
      <path
         id="path768"
         d="m 33.333334,12 h 1.333334 v 1.333334 h -1.333334"
         style="fill:#000000;fill-opacity:1;stroke-width:1.33333" />
      <path
         id="path730"
         d="m 8.0000002,12 h 1.3333334 v 1.333334 H 8.0000002"
         style="fill:#000000;fill-opacity:1;stroke-width:1.33333" />
      <path
         id="path728"
         d="m 6.6666669,12 h 1.3333333 v 1.333334 H 6.6666669"
         style="fill:#000000;fill-opacity:1;stroke-width:1.33333" />
      <path
         id="path726"
         d="m 5.3333335,12 h 1.3333334 v 1.333334 H 5.3333335"
         style="fill:#000000;fill-opacity:1;stroke-width:1.33333" />
      <path
         id="path708"
         d="m 36.000001,10.666667 h 1.333333 V 12 h -1.333333"
         style="fill:#000000;fill-opacity:1;stroke-width:1.33333" />
      <path
         id="path706"
         d="m 34.666668,10.666667 h 1.333333 V 12 h -1.333333"
         style="fill:#000000;fill-opacity:1;stroke-width:1.33333" />
      <path
         id="path704"
         d="m 33.333334,10.666667 h 1.333334 V 12 h -1.333334"
         style="fill:#000000;fill-opacity:1;stroke-width:1.33333" />
      <path
         id="path666"
         d="M 8.0000002,10.666667 H 9.3333336 V 12 H 8.0000002"
         style="fill:#000000;fill-opacity:1;stroke-width:1.33333" />
      <path
         id="path664"
         d="M 6.6666669,10.666667 H 8.0000002 V 12 H 6.6666669"
         style="fill:#000000;fill-opacity:1;stroke-width:1.33333" />
      <path
         id="path662"
         d="M 5.3333335,10.666667 H 6.6666669 V 12 H 5.3333335"
         style="fill:#000000;fill-opacity:1;stroke-width:1.33333" />
      <path
         id="path644"
         d="m 36.000001,9.3333336 h 1.333333 v 1.3333334 h -1.333333"
         style="fill:#000000;fill-opacity:1;stroke-width:1.33333" />
      <path
         id="path642"
         d="m 34.666668,9.3333336 h 1.333333 v 1.3333334 h -1.333333"
         style="fill:#000000;fill-opacity:1;stroke-width:1.33333" />
      <path
         id="path640"
         d="m 33.000001,9.666667 0.666667,-0.6666667 1,0.3333333 v 1.3333334 h -1.333334"
         style="fill:#000000;fill-opacity:1;stroke-width:1.33333" />
      <path
         id="path602"
         d="M 8.0000002,9.3333336 9.0000003,9.0000003 9.666667,9.666667 l -0.3333334,1 H 8.0000002"
         style="fill:#000000;fill-opacity:1;stroke-width:1.33333" />
      <path
         id="path600"
         d="M 6.6666669,9.3333336 H 8.0000002 V 10.666667 H 6.6666669"
         style="fill:#000000;fill-opacity:1;stroke-width:1.33333" />
      <path
         id="path598"
         d="M 5.3333335,9.3333336 H 6.6666669 V 10.666667 H 5.3333335"
         style="fill:#000000;fill-opacity:1;stroke-width:1.33333" />
      <path
         id="path580"
         d="m 36.000001,8.0000002 h 1.333333 v 1.3333334 h -1.333333"
         style="fill:#000000;fill-opacity:1;stroke-width:1.33333" />
      <path
         id="path578"
         d="m 34.666668,8.0000002 h 1.333333 v 1.3333334 h -1.333333"
         style="fill:#000000;fill-opacity:1;stroke-width:1.33333" />
      <path
         id="path576"
         d="m 33.333334,8.0000002 h 1.333334 v 1.3333334 l -1,-0.3333333"
         style="fill:#000000;fill-opacity:1;stroke-width:1.33333" />
      <path
         id="path574"
         d="m 32.000001,8.0000002 h 1.333333 l 0.333334,1.0000001 -0.666667,0.6666667 -1,-0.3333334"
         style="fill:#000000;fill-opacity:1;stroke-width:1.33333" />
      <path
         id="path572"
         d="m 30.666668,8.0000002 h 1.333333 v 1.3333334 h -1.333333"
         style="fill:#000000;fill-opacity:1;stroke-width:1.33333" />
      <path
         id="path570"
         d="m 29.333334,8.0000002 h 1.333334 v 1.3333334 h -1.333334"
         style="fill:#000000;fill-opacity:1;stroke-width:1.33333" />
      <path
         id="path568"
         d="m 28.000001,8.0000002 h 1.333333 v 1.3333334 h -1.333333"
         style="fill:#000000;fill-opacity:1;stroke-width:1.33333" />
      <path
         id="path566"
         d="m 26.666668,8.0000002 h 1.333333 v 1.3333334 h -1.333333"
         style="fill:#000000;fill-opacity:1;stroke-width:1.33333" />
      <path
         id="path564"
         d="m 25.000001,8.3333336 0.666666,-0.6666667 1.000001,0.3333333 V 9.3333336 L 25.666667,9.0000003"
         style="fill:#000000;fill-opacity:1;stroke-width:1.33333" />
      <path
         id="path550"
         d="M 16,8.0000002 17.000001,7.6666669 17.666667,8.3333336 17.000001,9.0000003 16,9.3333336"
         style="fill:#000000;fill-opacity:1;stroke-width:1.33333" />
      <path
         id="path548"
         d="M 14.666667,8.0000002 H 16 v 1.3333334 h -1.333333"
         style="fill:#000000;fill-opacity:1;stroke-width:1.33333" />
      <path
         id="path546"
         d="m 13.333334,8.0000002 h 1.333333 v 1.3333334 h -1.333333"
         style="fill:#000000;fill-opacity:1;stroke-width:1.33333" />
      <path
         id="path544"
         d="m 12,8.0000002 h 1.333334 V 9.3333336 H 12"
         style="fill:#000000;fill-opacity:1;stroke-width:1.33333" />
      <path
         id="path542"
         d="M 10.666667,8.0000002 H 12 v 1.3333334 h -1.333333"
         style="fill:#000000;fill-opacity:1;stroke-width:1.33333" />
      <path
         id="path540"
         d="m 9.3333336,8.0000002 h 1.3333334 v 1.3333334 l -1,0.3333334 -0.6666667,-0.6666667"
         style="fill:#000000;fill-opacity:1;stroke-width:1.33333" />
      <path
         id="path538"
         d="M 8.0000002,8.0000002 H 9.3333336 L 9.0000003,9.0000003 8.0000002,9.3333336"
         style="fill:#000000;fill-opacity:1;stroke-width:1.33333" />
      <path
         id="path536"
         d="M 6.6666669,8.0000002 H 8.0000002 V 9.3333336 H 6.6666669"
         style="fill:#000000;fill-opacity:1;stroke-width:1.33333" />
      <path
         id="path534"
         d="M 5.3333335,8.0000002 H 6.6666669 V 9.3333336 H 5.3333335"
         style="fill:#000000;fill-opacity:1;stroke-width:1.33333" />
      <path
         id="path516"
         d="m 36.000001,6.6666669 h 1.333333 v 1.3333333 h -1.333333"
         style="fill:#000000;fill-opacity:1;stroke-width:1.33333" />
      <path
         id="path514"
         d="m 34.666668,6.6666669 h 1.333333 v 1.3333333 h -1.333333"
         style="fill:#000000;fill-opacity:1;stroke-width:1.33333" />
      <path
         id="path512"
         d="m 33.333334,6.6666669 h 1.333334 v 1.3333333 h -1.333334"
         style="fill:#000000;fill-opacity:1;stroke-width:1.33333" />
      <path
         id="path510"
         d="m 32.000001,6.6666669 h 1.333333 v 1.3333333 h -1.333333"
         style="fill:#000000;fill-opacity:1;stroke-width:1.33333" />
      <path
         id="path508"
         d="m 30.666668,6.6666669 h 1.333333 v 1.3333333 h -1.333333"
         style="fill:#000000;fill-opacity:1;stroke-width:1.33333" />
      <path
         id="path506"
         d="m 29.333334,6.6666669 h 1.333334 v 1.3333333 h -1.333334"
         style="fill:#000000;fill-opacity:1;stroke-width:1.33333" />
      <path
         id="path504"
         d="m 28.000001,6.6666669 h 1.333333 v 1.3333333 h -1.333333"
         style="fill:#000000;fill-opacity:1;stroke-width:1.33333" />
      <path
         id="path502"
         d="m 26.666668,6.6666669 h 1.333333 v 1.3333333 h -1.333333"
         style="fill:#000000;fill-opacity:1;stroke-width:1.33333" />
      <path
         id="path500"
         d="m 25.333334,6.6666669 h 1.333334 V 8.0000002 L 25.666667,7.6666669"
         style="fill:#000000;fill-opacity:1;stroke-width:1.33333" />
      <path
         id="path498"
         d="m 24.000001,6.6666669 h 1.333333 l 0.333333,1 -0.666666,0.6666667 -0.666667,-0.6666667"
         style="fill:#000000;fill-opacity:1;stroke-width:1.33333" />
      <path
         id="path488"
         d="m 17.333334,6.6666669 h 1.333333 l -0.333333,1 -0.666667,0.6666667 -0.666666,-0.6666667"
         style="fill:#000000;fill-opacity:1;stroke-width:1.33333" />
      <path
         id="path486"
         d="m 16,6.6666669 h 1.333334 l -0.333333,1 L 16,8.0000002"
         style="fill:#000000;fill-opacity:1;stroke-width:1.33333" />
      <path
         id="path484"
         d="M 14.666667,6.6666669 H 16 v 1.3333333 h -1.333333"
         style="fill:#000000;fill-opacity:1;stroke-width:1.33333" />
      <path
         id="path482"
         d="m 13.333334,6.6666669 h 1.333333 v 1.3333333 h -1.333333"
         style="fill:#000000;fill-opacity:1;stroke-width:1.33333" />
      <path
         id="path480"
         d="m 12,6.6666669 h 1.333334 V 8.0000002 H 12"
         style="fill:#000000;fill-opacity:1;stroke-width:1.33333" />
      <path
         id="path478"
         d="M 10.666667,6.6666669 H 12 v 1.3333333 h -1.333333"
         style="fill:#000000;fill-opacity:1;stroke-width:1.33333" />
      <path
         id="path476"
         d="M 9.3333336,6.6666669 H 10.666667 V 8.0000002 H 9.3333336"
         style="fill:#000000;fill-opacity:1;stroke-width:1.33333" />
      <path
         id="path474"
         d="M 8.0000002,6.6666669 H 9.3333336 V 8.0000002 H 8.0000002"
         style="fill:#000000;fill-opacity:1;stroke-width:1.33333" />
      <path
         id="path472"
         d="M 6.6666669,6.6666669 H 8.0000002 V 8.0000002 H 6.6666669"
         style="fill:#000000;fill-opacity:1;stroke-width:1.33333" />
      <path
         id="path470"
         d="M 5.3333335,6.6666669 H 6.6666669 V 8.0000002 H 5.3333335"
         style="fill:#000000;fill-opacity:1;stroke-width:1.33333" />
      <path
         id="path452"
         d="m 36.000001,5.3333335 1,0.3333333 0.333333,1.0000001 h -1.333333"
         style="fill:#000000;fill-opacity:1;stroke-width:1.33333" />
      <path
         id="path450"
         d="m 34.666668,5.3333335 h 1.333333 v 1.3333334 h -1.333333"
         style="fill:#000000;fill-opacity:1;stroke-width:1.33333" />
      <path
         id="path448"
         d="m 33.333334,5.3333335 h 1.333334 v 1.3333334 h -1.333334"
         style="fill:#000000;fill-opacity:1;stroke-width:1.33333" />
      <path
         id="path446"
         d="m 32.000001,5.3333335 h 1.333333 v 1.3333334 h -1.333333"
         style="fill:#000000;fill-opacity:1;stroke-width:1.33333" />
      <path
         id="path444"
         d="m 30.666668,5.3333335 h 1.333333 v 1.3333334 h -1.333333"
         style="fill:#000000;fill-opacity:1;stroke-width:1.33333" />
      <path
         id="path442"
         d="m 29.333334,5.3333335 h 1.333334 v 1.3333334 h -1.333334"
         style="fill:#000000;fill-opacity:1;stroke-width:1.33333" />
      <path
         id="path440"
         d="m 28.000001,5.3333335 h 1.333333 v 1.3333334 h -1.333333"
         style="fill:#000000;fill-opacity:1;stroke-width:1.33333" />
      <path
         id="path438"
         d="m 26.666668,5.3333335 h 1.333333 v 1.3333334 h -1.333333"
         style="fill:#000000;fill-opacity:1;stroke-width:1.33333" />
      <path
         id="path436"
         d="m 25.333334,5.3333335 h 1.333334 v 1.3333334 h -1.333334"
         style="fill:#000000;fill-opacity:1;stroke-width:1.33333" />
      <path
         id="path434"
         d="m 24.333334,5.6666668 1,-0.3333333 v 1.3333334 h -1.333333"
         style="fill:#000000;fill-opacity:1;stroke-width:1.33333" />
      <path
         id="path424"
         d="m 17.333334,5.3333335 1,0.3333333 0.333333,1.0000001 h -1.333333"
         style="fill:#000000;fill-opacity:1;stroke-width:1.33333" />
      <path
         id="path422"
         d="m 16,5.3333335 h 1.333334 V 6.6666669 H 16"
         style="fill:#000000;fill-opacity:1;stroke-width:1.33333" />
      <path
         id="path420"
         d="M 14.666667,5.3333335 H 16 v 1.3333334 h -1.333333"
         style="fill:#000000;fill-opacity:1;stroke-width:1.33333" />
      <path
         id="path418"
         d="m 13.333334,5.3333335 h 1.333333 v 1.3333334 h -1.333333"
         style="fill:#000000;fill-opacity:1;stroke-width:1.33333" />
      <path
         id="path416"
         d="m 12,5.3333335 h 1.333334 V 6.6666669 H 12"
         style="fill:#000000;fill-opacity:1;stroke-width:1.33333" />
      <path
         id="path414"
         d="M 10.666667,5.3333335 H 12 v 1.3333334 h -1.333333"
         style="fill:#000000;fill-opacity:1;stroke-width:1.33333" />
      <path
         id="path412"
         d="M 9.3333336,5.3333335 H 10.666667 V 6.6666669 H 9.3333336"
         style="fill:#000000;fill-opacity:1;stroke-width:1.33333" />
      <path
         id="path410"
         d="M 8.0000002,5.3333335 H 9.3333336 V 6.6666669 H 8.0000002"
         style="fill:#000000;fill-opacity:1;stroke-width:1.33333" />
      <path
         id="path408"
         d="M 6.6666669,5.3333335 H 8.0000002 V 6.6666669 H 6.6666669"
         style="fill:#000000;fill-opacity:1;stroke-width:1.33333" />
      <path
         id="path406"
         d="M 5.6666668,5.6666668 6.6666669,5.3333335 V 6.6666669 H 5.3333335"
         style="fill:#000000;fill-opacity:1;stroke-width:1.33333" />
    </g>
  </g>
</svg>
