<?xml version="1.0" encoding="UTF-8" standalone="no"?>
<svg
   xmlns:dc="http://purl.org/dc/elements/1.1/"
   xmlns:cc="http://creativecommons.org/ns#"
   xmlns:rdf="http://www.w3.org/1999/02/22-rdf-syntax-ns#"
   xmlns:svg="http://www.w3.org/2000/svg"
   xmlns="http://www.w3.org/2000/svg"
   xmlns:sodipodi="http://sodipodi.sourceforge.net/DTD/sodipodi-0.dtd"
   xmlns:inkscape="http://www.inkscape.org/namespaces/inkscape"
   inkscape:export-ydpi="72"
   inkscape:export-xdpi="72"
   inkscape:export-filename="/Users/jonathan/p/perso/r8bemu/resources/images/power_32x32.png"
   version="1.1"
   id="svg112"
   width="42.666668"
   height="42.666668"
   viewBox="0 0 42.666668 42.666668"
   sodipodi:docname="power.svg"
   inkscape:version="1.0 (4035a4f, 2020-05-01)">
  <metadata
     id="metadata118">
    <rdf:RDF>
      <cc:Work
         rdf:about="">
        <dc:format>image/svg+xml</dc:format>
        <dc:type
           rdf:resource="http://purl.org/dc/dcmitype/StillImage" />
        <dc:title />
      </cc:Work>
    </rdf:RDF>
  </metadata>
  <defs
     id="defs116" />
  <sodipodi:namedview
     inkscape:document-rotation="0"
     pagecolor="#ffffff"
     bordercolor="#666666"
     borderopacity="1"
     objecttolerance="10"
     gridtolerance="10"
     guidetolerance="10"
     inkscape:pageopacity="0"
     inkscape:pageshadow="2"
     inkscape:window-width="1675"
     inkscape:window-height="1109"
     id="namedview114"
     showgrid="false"
     inkscape:zoom="17.226562"
     inkscape:cx="20.78186"
     inkscape:cy="19.011338"
     inkscape:window-x="214"
     inkscape:window-y="135"
     inkscape:window-maximized="0"
     inkscape:current-layer="g120" />
  <g
     inkscape:groupmode="layer"
     inkscape:label="Image"
     id="g120">
    <path
       style="fill:#000000;stroke-width:1.06666"
       d="M 14.680073,33.517991 C 11.086742,31.568269 8.5320208,26.850415 8.5373184,22.174041 8.5425184,17.588958 12.124182,11.72107 14.917653,11.72107 c 2.836455,0 2.845202,3.570478 0.01568,6.400001 C 13.76,19.294404 12.8,21.251327 12.8,22.469788 c 0,2.90256 5.602593,8.451283 8.533333,8.451283 2.93074,0 8.533334,-5.548723 8.533334,-8.451283 0,-1.218461 -0.96,-3.175384 -2.133334,-4.348717 -2.829523,-2.829523 -2.820777,-6.400001 0.01568,-6.400001 2.793471,0 6.375141,5.867888 6.380335,10.452971 0.0114,10.066278 -10.502335,16.198504 -19.449271,11.34395 z m 4.519925,-18.063587 c 0,-7.2888893 0.18963,-8.0000002 2.133334,-8.0000002 1.943703,0 2.133333,0.7111109 2.133333,8.0000002 0,7.288888 -0.18963,8 -2.133333,8 -1.943704,0 -2.133334,-0.711112 -2.133334,-8 z"
       id="path124" />
  </g>
</svg>
