<?xml version="1.0" encoding="UTF-8" standalone="no"?>
<svg
   xmlns:dc="http://purl.org/dc/elements/1.1/"
   xmlns:cc="http://creativecommons.org/ns#"
   xmlns:rdf="http://www.w3.org/1999/02/22-rdf-syntax-ns#"
   xmlns:svg="http://www.w3.org/2000/svg"
   xmlns="http://www.w3.org/2000/svg"
   xmlns:sodipodi="http://sodipodi.sourceforge.net/DTD/sodipodi-0.dtd"
   xmlns:inkscape="http://www.inkscape.org/namespaces/inkscape"
   inkscape:export-ydpi="72"
   inkscape:export-xdpi="72"
   inkscape:export-filename="/Users/jonathan/p/perso/r8bemu/resources/images/windowed_32x32.png"
   inkscape:version="1.0 (4035a4f, 2020-05-01)"
   sodipodi:docname="windowed.svg"
   viewBox="0 0 42.666668 42.666668"
   height="42.666668"
   width="42.666668"
   id="svg60"
   version="1.1">
  <metadata
     id="metadata66">
    <rdf:RDF>
      <cc:Work
         rdf:about="">
        <dc:format>image/svg+xml</dc:format>
        <dc:type
           rdf:resource="http://purl.org/dc/dcmitype/StillImage" />
        <dc:title></dc:title>
      </cc:Work>
    </rdf:RDF>
  </metadata>
  <defs
     id="defs64" />
  <sodipodi:namedview
     inkscape:current-layer="g68"
     inkscape:window-maximized="0"
     inkscape:window-y="0"
     inkscape:window-x="970"
     inkscape:cy="26.015857"
     inkscape:cx="14.725504"
     inkscape:zoom="12.757299"
     showgrid="false"
     id="namedview62"
     inkscape:window-height="1200"
     inkscape:window-width="950"
     inkscape:pageshadow="2"
     inkscape:pageopacity="0"
     guidetolerance="10"
     gridtolerance="10"
     objecttolerance="10"
     borderopacity="1"
     bordercolor="#666666"
     pagecolor="#ffffff" />
  <g
     id="g68"
     inkscape:label="Image"
     inkscape:groupmode="layer">
    <g
       id="g72">
      <path
         id="path1840"
         d="m 25.333334,36.000001 1,-0.333333 0.666667,0.666666 -0.666667,0.666667 -1,0.333333"
         style="fill:#000000;fill-opacity:1;stroke-width:1.33333" />
      <path
         id="path1838"
         d="m 24.000001,36.000001 h 1.333333 v 1.333333 l -1,-0.333333"
         style="fill:#000000;fill-opacity:1;stroke-width:1.33333" />
      <path
         id="path1828"
         d="m 17.333334,36.000001 h 1.333333 l -0.333333,1 -1,0.333333"
         style="fill:#000000;fill-opacity:1;stroke-width:1.33333" />
      <path
         id="path1826"
         d="m 15.666667,36.333334 0.666667,-0.666666 1,0.333333 v 1.333333 l -1,-0.333333"
         style="fill:#000000;fill-opacity:1;stroke-width:1.33333" />
      <path
         id="path1778"
         d="m 26.666668,34.666668 h 1.333333 l -0.333333,1 -0.666667,0.666666 -0.666667,-0.666666"
         style="fill:#000000;fill-opacity:1;stroke-width:1.33333" />
      <path
         id="path1776"
         d="m 25.333334,34.666668 h 1.333334 l -0.333334,1 -1,0.333333"
         style="fill:#000000;fill-opacity:1;stroke-width:1.33333" />
      <path
         id="path1774"
         d="m 24.000001,34.666668 h 1.333333 v 1.333333 h -1.333333"
         style="fill:#000000;fill-opacity:1;stroke-width:1.33333" />
      <path
         id="path1764"
         d="m 17.333334,34.666668 h 1.333333 v 1.333333 h -1.333333"
         style="fill:#000000;fill-opacity:1;stroke-width:1.33333" />
      <path
         id="path1762"
         d="m 16,34.666668 h 1.333334 v 1.333333 l -1,-0.333333"
         style="fill:#000000;fill-opacity:1;stroke-width:1.33333" />
      <path
         id="path1760"
         d="M 14.666667,34.666668 H 16 l 0.333334,1 -0.666667,0.666666 L 15,35.666668"
         style="fill:#000000;fill-opacity:1;stroke-width:1.33333" />
      <path
         id="path1714"
         d="m 26.666668,33.333334 h 1.333333 v 1.333334 h -1.333333"
         style="fill:#000000;fill-opacity:1;stroke-width:1.33333" />
      <path
         id="path1712"
         d="m 25.333334,33.333334 h 1.333334 v 1.333334 h -1.333334"
         style="fill:#000000;fill-opacity:1;stroke-width:1.33333" />
      <path
         id="path1710"
         d="m 24.000001,33.333334 h 1.333333 v 1.333334 h -1.333333"
         style="fill:#000000;fill-opacity:1;stroke-width:1.33333" />
      <path
         id="path1700"
         d="m 17.333334,33.333334 h 1.333333 v 1.333334 h -1.333333"
         style="fill:#000000;fill-opacity:1;stroke-width:1.33333" />
      <path
         id="path1698"
         d="m 16,33.333334 h 1.333334 v 1.333334 H 16"
         style="fill:#000000;fill-opacity:1;stroke-width:1.33333" />
      <path
         id="path1696"
         d="M 14.666667,33.333334 H 16 v 1.333334 h -1.333333"
         style="fill:#000000;fill-opacity:1;stroke-width:1.33333" />
      <path
         id="path1650"
         d="m 26.666668,32.000001 h 1.333333 v 1.333333 h -1.333333"
         style="fill:#000000;fill-opacity:1;stroke-width:1.33333" />
      <path
         id="path1648"
         d="m 25.333334,32.000001 h 1.333334 v 1.333333 h -1.333334"
         style="fill:#000000;fill-opacity:1;stroke-width:1.33333" />
      <path
         id="path1646"
         d="m 24.000001,32.000001 h 1.333333 v 1.333333 h -1.333333"
         style="fill:#000000;fill-opacity:1;stroke-width:1.33333" />
      <path
         id="path1636"
         d="m 17.333334,32.000001 h 1.333333 v 1.333333 h -1.333333"
         style="fill:#000000;fill-opacity:1;stroke-width:1.33333" />
      <path
         id="path1634"
         d="m 16,32.000001 h 1.333334 v 1.333333 H 16"
         style="fill:#000000;fill-opacity:1;stroke-width:1.33333" />
      <path
         id="path1632"
         d="M 14.666667,32.000001 H 16 v 1.333333 h -1.333333"
         style="fill:#000000;fill-opacity:1;stroke-width:1.33333" />
      <path
         id="path1586"
         d="m 26.666668,30.666668 h 1.333333 v 1.333333 h -1.333333"
         style="fill:#000000;fill-opacity:1;stroke-width:1.33333" />
      <path
         id="path1584"
         d="m 25.333334,30.666668 h 1.333334 v 1.333333 h -1.333334"
         style="fill:#000000;fill-opacity:1;stroke-width:1.33333" />
      <path
         id="path1582"
         d="m 24.000001,30.666668 h 1.333333 v 1.333333 h -1.333333"
         style="fill:#000000;fill-opacity:1;stroke-width:1.33333" />
      <path
         id="path1572"
         d="m 17.333334,30.666668 h 1.333333 v 1.333333 h -1.333333"
         style="fill:#000000;fill-opacity:1;stroke-width:1.33333" />
      <path
         id="path1570"
         d="m 16,30.666668 h 1.333334 v 1.333333 H 16"
         style="fill:#000000;fill-opacity:1;stroke-width:1.33333" />
      <path
         id="path1568"
         d="M 14.666667,30.666668 H 16 v 1.333333 h -1.333333"
         style="fill:#000000;fill-opacity:1;stroke-width:1.33333" />
      <path
         id="path1522"
         d="m 26.666668,29.333334 h 1.333333 v 1.333334 h -1.333333"
         style="fill:#000000;fill-opacity:1;stroke-width:1.33333" />
      <path
         id="path1520"
         d="m 25.333334,29.333334 h 1.333334 v 1.333334 h -1.333334"
         style="fill:#000000;fill-opacity:1;stroke-width:1.33333" />
      <path
         id="path1518"
         d="m 24.000001,29.333334 h 1.333333 v 1.333334 h -1.333333"
         style="fill:#000000;fill-opacity:1;stroke-width:1.33333" />
      <path
         id="path1508"
         d="m 17.333334,29.333334 h 1.333333 v 1.333334 h -1.333333"
         style="fill:#000000;fill-opacity:1;stroke-width:1.33333" />
      <path
         id="path1506"
         d="m 16,29.333334 h 1.333334 v 1.333334 H 16"
         style="fill:#000000;fill-opacity:1;stroke-width:1.33333" />
      <path
         id="path1504"
         d="M 14.666667,29.333334 H 16 v 1.333334 h -1.333333"
         style="fill:#000000;fill-opacity:1;stroke-width:1.33333" />
      <path
         id="path1458"
         d="m 26.666668,28.000001 1,-0.333333 0.666666,0.666666 -0.333333,1 h -1.333333"
         style="fill:#000000;fill-opacity:1;stroke-width:1.33333" />
      <path
         id="path1456"
         d="m 25.333334,28.000001 h 1.333334 v 1.333333 h -1.333334"
         style="fill:#000000;fill-opacity:1;stroke-width:1.33333" />
      <path
         id="path1454"
         d="m 24.000001,28.000001 h 1.333333 v 1.333333 h -1.333333"
         style="fill:#000000;fill-opacity:1;stroke-width:1.33333" />
      <path
         id="path1444"
         d="m 17.333334,28.000001 h 1.333333 v 1.333333 h -1.333333"
         style="fill:#000000;fill-opacity:1;stroke-width:1.33333" />
      <path
         id="path1442"
         d="m 16,28.000001 h 1.333334 v 1.333333 H 16"
         style="fill:#000000;fill-opacity:1;stroke-width:1.33333" />
      <path
         id="path1440"
         d="M 14.333334,28.333334 15,27.666668 l 1,0.333333 v 1.333333 h -1.333333"
         style="fill:#000000;fill-opacity:1;stroke-width:1.33333" />
      <path
         id="path1406"
         d="m 34.666668,26.666668 1,-0.333334 0.666666,0.666667 -0.666666,0.666667 -1,0.333333"
         style="fill:#000000;fill-opacity:1;stroke-width:1.33333" />
      <path
         id="path1404"
         d="m 33.333334,26.666668 h 1.333334 v 1.333333 h -1.333334"
         style="fill:#000000;fill-opacity:1;stroke-width:1.33333" />
      <path
         id="path1402"
         d="m 32.000001,26.666668 h 1.333333 v 1.333333 h -1.333333"
         style="fill:#000000;fill-opacity:1;stroke-width:1.33333" />
      <path
         id="path1400"
         d="m 30.666668,26.666668 h 1.333333 v 1.333333 h -1.333333"
         style="fill:#000000;fill-opacity:1;stroke-width:1.33333" />
      <path
         id="path1398"
         d="m 29.333334,26.666668 h 1.333334 v 1.333333 h -1.333334"
         style="fill:#000000;fill-opacity:1;stroke-width:1.33333" />
      <path
         id="path1396"
         d="m 28.000001,26.666668 h 1.333333 v 1.333333 l -1,0.333333 -0.666666,-0.666666"
         style="fill:#000000;fill-opacity:1;stroke-width:1.33333" />
      <path
         id="path1394"
         d="m 26.666668,26.666668 h 1.333333 l -0.333333,1 -1,0.333333"
         style="fill:#000000;fill-opacity:1;stroke-width:1.33333" />
      <path
         id="path1392"
         d="m 25.333334,26.666668 h 1.333334 v 1.333333 h -1.333334"
         style="fill:#000000;fill-opacity:1;stroke-width:1.33333" />
      <path
         id="path1390"
         d="m 24.000001,26.666668 h 1.333333 v 1.333333 h -1.333333"
         style="fill:#000000;fill-opacity:1;stroke-width:1.33333" />
      <path
         id="path1380"
         d="m 17.333334,26.666668 h 1.333333 v 1.333333 h -1.333333"
         style="fill:#000000;fill-opacity:1;stroke-width:1.33333" />
      <path
         id="path1378"
         d="m 16,26.666668 h 1.333334 v 1.333333 H 16"
         style="fill:#000000;fill-opacity:1;stroke-width:1.33333" />
      <path
         id="path1376"
         d="M 14.666667,26.666668 H 16 v 1.333333 l -1,-0.333333"
         style="fill:#000000;fill-opacity:1;stroke-width:1.33333" />
      <path
         id="path1374"
         d="m 13.333334,26.666668 h 1.333333 l 0.333333,1 -0.666666,0.666666 -1,-0.333333"
         style="fill:#000000;fill-opacity:1;stroke-width:1.33333" />
      <path
         id="path1372"
         d="m 12,26.666668 h 1.333334 v 1.333333 H 12"
         style="fill:#000000;fill-opacity:1;stroke-width:1.33333" />
      <path
         id="path1370"
         d="M 10.666667,26.666668 H 12 v 1.333333 h -1.333333"
         style="fill:#000000;fill-opacity:1;stroke-width:1.33333" />
      <path
         id="path1368"
         d="m 9.3333336,26.666668 h 1.3333334 v 1.333333 H 9.3333336"
         style="fill:#000000;fill-opacity:1;stroke-width:1.33333" />
      <path
         id="path1366"
         d="m 8.0000002,26.666668 h 1.3333334 v 1.333333 H 8.0000002"
         style="fill:#000000;fill-opacity:1;stroke-width:1.33333" />
      <path
         id="path1364"
         d="m 6.3333335,27.000001 0.6666667,-0.666667 1,0.333334 v 1.333333 l -1,-0.333333"
         style="fill:#000000;fill-opacity:1;stroke-width:1.33333" />
      <path
         id="path1344"
         d="m 36.000001,25.333334 h 1.333333 l -0.333333,1 -0.666667,0.666667 -0.666666,-0.666667"
         style="fill:#000000;fill-opacity:1;stroke-width:1.33333" />
      <path
         id="path1342"
         d="m 34.666668,25.333334 h 1.333333 l -0.333333,1 -1,0.333334"
         style="fill:#000000;fill-opacity:1;stroke-width:1.33333" />
      <path
         id="path1340"
         d="m 33.333334,25.333334 h 1.333334 v 1.333334 h -1.333334"
         style="fill:#000000;fill-opacity:1;stroke-width:1.33333" />
      <path
         id="path1338"
         d="m 32.000001,25.333334 h 1.333333 v 1.333334 h -1.333333"
         style="fill:#000000;fill-opacity:1;stroke-width:1.33333" />
      <path
         id="path1336"
         d="m 30.666668,25.333334 h 1.333333 v 1.333334 h -1.333333"
         style="fill:#000000;fill-opacity:1;stroke-width:1.33333" />
      <path
         id="path1334"
         d="m 29.333334,25.333334 h 1.333334 v 1.333334 h -1.333334"
         style="fill:#000000;fill-opacity:1;stroke-width:1.33333" />
      <path
         id="path1332"
         d="m 28.000001,25.333334 h 1.333333 v 1.333334 h -1.333333"
         style="fill:#000000;fill-opacity:1;stroke-width:1.33333" />
      <path
         id="path1330"
         d="m 26.666668,25.333334 h 1.333333 v 1.333334 h -1.333333"
         style="fill:#000000;fill-opacity:1;stroke-width:1.33333" />
      <path
         id="path1328"
         d="m 25.333334,25.333334 h 1.333334 v 1.333334 h -1.333334"
         style="fill:#000000;fill-opacity:1;stroke-width:1.33333" />
      <path
         id="path1326"
         d="m 24.000001,25.333334 h 1.333333 v 1.333334 h -1.333333"
         style="fill:#000000;fill-opacity:1;stroke-width:1.33333" />
      <path
         id="path1316"
         d="m 17.333334,25.333334 h 1.333333 v 1.333334 h -1.333333"
         style="fill:#000000;fill-opacity:1;stroke-width:1.33333" />
      <path
         id="path1314"
         d="m 16,25.333334 h 1.333334 v 1.333334 H 16"
         style="fill:#000000;fill-opacity:1;stroke-width:1.33333" />
      <path
         id="path1312"
         d="M 14.666667,25.333334 H 16 v 1.333334 h -1.333333"
         style="fill:#000000;fill-opacity:1;stroke-width:1.33333" />
      <path
         id="path1310"
         d="m 13.333334,25.333334 h 1.333333 v 1.333334 h -1.333333"
         style="fill:#000000;fill-opacity:1;stroke-width:1.33333" />
      <path
         id="path1308"
         d="m 12,25.333334 h 1.333334 v 1.333334 H 12"
         style="fill:#000000;fill-opacity:1;stroke-width:1.33333" />
      <path
         id="path1306"
         d="M 10.666667,25.333334 H 12 v 1.333334 h -1.333333"
         style="fill:#000000;fill-opacity:1;stroke-width:1.33333" />
      <path
         id="path1304"
         d="m 9.3333336,25.333334 h 1.3333334 v 1.333334 H 9.3333336"
         style="fill:#000000;fill-opacity:1;stroke-width:1.33333" />
      <path
         id="path1302"
         d="m 8.0000002,25.333334 h 1.3333334 v 1.333334 H 8.0000002"
         style="fill:#000000;fill-opacity:1;stroke-width:1.33333" />
      <path
         id="path1300"
         d="m 6.6666669,25.333334 h 1.3333333 v 1.333334 l -1,-0.333334"
         style="fill:#000000;fill-opacity:1;stroke-width:1.33333" />
      <path
         id="path1298"
         d="m 5.3333335,25.333334 h 1.3333334 l 0.3333333,1 -0.6666667,0.666667 -0.6666667,-0.666667"
         style="fill:#000000;fill-opacity:1;stroke-width:1.33333" />
      <path
         id="path1280"
         d="m 36.000001,24.000001 1,0.333333 0.333333,1 h -1.333333"
         style="fill:#000000;fill-opacity:1;stroke-width:1.33333" />
      <path
         id="path1278"
         d="m 34.666668,24.000001 h 1.333333 v 1.333333 h -1.333333"
         style="fill:#000000;fill-opacity:1;stroke-width:1.33333" />
      <path
         id="path1276"
         d="m 33.333334,24.000001 h 1.333334 v 1.333333 h -1.333334"
         style="fill:#000000;fill-opacity:1;stroke-width:1.33333" />
      <path
         id="path1274"
         d="m 32.000001,24.000001 h 1.333333 v 1.333333 h -1.333333"
         style="fill:#000000;fill-opacity:1;stroke-width:1.33333" />
      <path
         id="path1272"
         d="m 30.666668,24.000001 h 1.333333 v 1.333333 h -1.333333"
         style="fill:#000000;fill-opacity:1;stroke-width:1.33333" />
      <path
         id="path1270"
         d="m 29.333334,24.000001 h 1.333334 v 1.333333 h -1.333334"
         style="fill:#000000;fill-opacity:1;stroke-width:1.33333" />
      <path
         id="path1268"
         d="m 28.000001,24.000001 h 1.333333 v 1.333333 h -1.333333"
         style="fill:#000000;fill-opacity:1;stroke-width:1.33333" />
      <path
         id="path1266"
         d="m 26.666668,24.000001 h 1.333333 v 1.333333 h -1.333333"
         style="fill:#000000;fill-opacity:1;stroke-width:1.33333" />
      <path
         id="path1264"
         d="m 25.333334,24.000001 h 1.333334 v 1.333333 h -1.333334"
         style="fill:#000000;fill-opacity:1;stroke-width:1.33333" />
      <path
         id="path1262"
         d="m 24.333334,24.333334 1,-0.333333 v 1.333333 h -1.333333"
         style="fill:#000000;fill-opacity:1;stroke-width:1.33333" />
      <path
         id="path1252"
         d="m 17.333334,24.000001 1,0.333333 0.333333,1 h -1.333333"
         style="fill:#000000;fill-opacity:1;stroke-width:1.33333" />
      <path
         id="path1250"
         d="m 16,24.000001 h 1.333334 v 1.333333 H 16"
         style="fill:#000000;fill-opacity:1;stroke-width:1.33333" />
      <path
         id="path1248"
         d="M 14.666667,24.000001 H 16 v 1.333333 h -1.333333"
         style="fill:#000000;fill-opacity:1;stroke-width:1.33333" />
      <path
         id="path1246"
         d="m 13.333334,24.000001 h 1.333333 v 1.333333 h -1.333333"
         style="fill:#000000;fill-opacity:1;stroke-width:1.33333" />
      <path
         id="path1244"
         d="m 12,24.000001 h 1.333334 v 1.333333 H 12"
         style="fill:#000000;fill-opacity:1;stroke-width:1.33333" />
      <path
         id="path1242"
         d="M 10.666667,24.000001 H 12 v 1.333333 h -1.333333"
         style="fill:#000000;fill-opacity:1;stroke-width:1.33333" />
      <path
         id="path1240"
         d="m 9.3333336,24.000001 h 1.3333334 v 1.333333 H 9.3333336"
         style="fill:#000000;fill-opacity:1;stroke-width:1.33333" />
      <path
         id="path1238"
         d="m 8.0000002,24.000001 h 1.3333334 v 1.333333 H 8.0000002"
         style="fill:#000000;fill-opacity:1;stroke-width:1.33333" />
      <path
         id="path1236"
         d="m 6.6666669,24.000001 h 1.3333333 v 1.333333 H 6.6666669"
         style="fill:#000000;fill-opacity:1;stroke-width:1.33333" />
      <path
         id="path1234"
         d="m 5.6666668,24.333334 1.0000001,-0.333333 v 1.333333 H 5.3333335"
         style="fill:#000000;fill-opacity:1;stroke-width:1.33333" />
      <path
         id="path960"
         d="m 36.000001,17.333334 h 1.333333 l -0.333333,1 -1,0.333333"
         style="fill:#000000;fill-opacity:1;stroke-width:1.33333" />
      <path
         id="path958"
         d="m 34.666668,17.333334 h 1.333333 v 1.333333 h -1.333333"
         style="fill:#000000;fill-opacity:1;stroke-width:1.33333" />
      <path
         id="path956"
         d="m 33.333334,17.333334 h 1.333334 v 1.333333 h -1.333334"
         style="fill:#000000;fill-opacity:1;stroke-width:1.33333" />
      <path
         id="path954"
         d="m 32.000001,17.333334 h 1.333333 v 1.333333 h -1.333333"
         style="fill:#000000;fill-opacity:1;stroke-width:1.33333" />
      <path
         id="path952"
         d="m 30.666668,17.333334 h 1.333333 v 1.333333 h -1.333333"
         style="fill:#000000;fill-opacity:1;stroke-width:1.33333" />
      <path
         id="path950"
         d="m 29.333334,17.333334 h 1.333334 v 1.333333 h -1.333334"
         style="fill:#000000;fill-opacity:1;stroke-width:1.33333" />
      <path
         id="path948"
         d="m 28.000001,17.333334 h 1.333333 v 1.333333 h -1.333333"
         style="fill:#000000;fill-opacity:1;stroke-width:1.33333" />
      <path
         id="path946"
         d="m 26.666668,17.333334 h 1.333333 v 1.333333 h -1.333333"
         style="fill:#000000;fill-opacity:1;stroke-width:1.33333" />
      <path
         id="path944"
         d="m 25.333334,17.333334 h 1.333334 v 1.333333 h -1.333334"
         style="fill:#000000;fill-opacity:1;stroke-width:1.33333" />
      <path
         id="path942"
         d="m 24.000001,17.333334 h 1.333333 v 1.333333 l -1,-0.333333"
         style="fill:#000000;fill-opacity:1;stroke-width:1.33333" />
      <path
         id="path932"
         d="m 17.333334,17.333334 h 1.333333 l -0.333333,1 -1,0.333333"
         style="fill:#000000;fill-opacity:1;stroke-width:1.33333" />
      <path
         id="path930"
         d="m 16,17.333334 h 1.333334 v 1.333333 H 16"
         style="fill:#000000;fill-opacity:1;stroke-width:1.33333" />
      <path
         id="path928"
         d="M 14.666667,17.333334 H 16 v 1.333333 h -1.333333"
         style="fill:#000000;fill-opacity:1;stroke-width:1.33333" />
      <path
         id="path926"
         d="m 13.333334,17.333334 h 1.333333 v 1.333333 h -1.333333"
         style="fill:#000000;fill-opacity:1;stroke-width:1.33333" />
      <path
         id="path924"
         d="m 12,17.333334 h 1.333334 v 1.333333 H 12"
         style="fill:#000000;fill-opacity:1;stroke-width:1.33333" />
      <path
         id="path922"
         d="M 10.666667,17.333334 H 12 v 1.333333 h -1.333333"
         style="fill:#000000;fill-opacity:1;stroke-width:1.33333" />
      <path
         id="path920"
         d="m 9.3333336,17.333334 h 1.3333334 v 1.333333 H 9.3333336"
         style="fill:#000000;fill-opacity:1;stroke-width:1.33333" />
      <path
         id="path918"
         d="m 8.0000002,17.333334 h 1.3333334 v 1.333333 H 8.0000002"
         style="fill:#000000;fill-opacity:1;stroke-width:1.33333" />
      <path
         id="path916"
         d="m 6.6666669,17.333334 h 1.3333333 v 1.333333 H 6.6666669"
         style="fill:#000000;fill-opacity:1;stroke-width:1.33333" />
      <path
         id="path914"
         d="m 5.3333335,17.333334 h 1.3333334 v 1.333333 L 5.6666668,18.333334"
         style="fill:#000000;fill-opacity:1;stroke-width:1.33333" />
      <path
         id="path896"
         d="m 35.666668,16.333334 0.666666,-0.666667 0.666667,0.666667 0.333333,1 h -1.333333"
         style="fill:#000000;fill-opacity:1;stroke-width:1.33333" />
      <path
         id="path894"
         d="m 34.666668,16 1,0.333334 0.333333,1 h -1.333333"
         style="fill:#000000;fill-opacity:1;stroke-width:1.33333" />
      <path
         id="path892"
         d="m 33.333334,16 h 1.333334 v 1.333334 h -1.333334"
         style="fill:#000000;fill-opacity:1;stroke-width:1.33333" />
      <path
         id="path890"
         d="m 32.000001,16 h 1.333333 v 1.333334 h -1.333333"
         style="fill:#000000;fill-opacity:1;stroke-width:1.33333" />
      <path
         id="path888"
         d="m 30.666668,16 h 1.333333 v 1.333334 h -1.333333"
         style="fill:#000000;fill-opacity:1;stroke-width:1.33333" />
      <path
         id="path886"
         d="m 29.333334,16 h 1.333334 v 1.333334 h -1.333334"
         style="fill:#000000;fill-opacity:1;stroke-width:1.33333" />
      <path
         id="path884"
         d="m 28.000001,16 h 1.333333 v 1.333334 h -1.333333"
         style="fill:#000000;fill-opacity:1;stroke-width:1.33333" />
      <path
         id="path882"
         d="m 26.666668,16 h 1.333333 v 1.333334 h -1.333333"
         style="fill:#000000;fill-opacity:1;stroke-width:1.33333" />
      <path
         id="path880"
         d="m 25.333334,16 h 1.333334 v 1.333334 h -1.333334"
         style="fill:#000000;fill-opacity:1;stroke-width:1.33333" />
      <path
         id="path878"
         d="m 24.000001,16 h 1.333333 v 1.333334 h -1.333333"
         style="fill:#000000;fill-opacity:1;stroke-width:1.33333" />
      <path
         id="path868"
         d="m 17.333334,16 h 1.333333 v 1.333334 h -1.333333"
         style="fill:#000000;fill-opacity:1;stroke-width:1.33333" />
      <path
         id="path866"
         d="m 16,16 h 1.333334 v 1.333334 H 16"
         style="fill:#000000;fill-opacity:1;stroke-width:1.33333" />
      <path
         id="path864"
         d="M 14.666667,16 H 16 v 1.333334 h -1.333333"
         style="fill:#000000;fill-opacity:1;stroke-width:1.33333" />
      <path
         id="path862"
         d="m 13.333334,16 h 1.333333 v 1.333334 h -1.333333"
         style="fill:#000000;fill-opacity:1;stroke-width:1.33333" />
      <path
         id="path860"
         d="m 12,16 h 1.333334 v 1.333334 H 12"
         style="fill:#000000;fill-opacity:1;stroke-width:1.33333" />
      <path
         id="path858"
         d="M 10.666667,16 H 12 v 1.333334 h -1.333333"
         style="fill:#000000;fill-opacity:1;stroke-width:1.33333" />
      <path
         id="path856"
         d="m 9.3333336,16 h 1.3333334 v 1.333334 H 9.3333336"
         style="fill:#000000;fill-opacity:1;stroke-width:1.33333" />
      <path
         id="path854"
         d="m 8.0000002,16 h 1.3333334 v 1.333334 H 8.0000002"
         style="fill:#000000;fill-opacity:1;stroke-width:1.33333" />
      <path
         id="path852"
         d="m 7.0000002,16.333334 1,-0.333334 v 1.333334 H 6.6666669"
         style="fill:#000000;fill-opacity:1;stroke-width:1.33333" />
      <path
         id="path850"
         d="m 5.6666668,16.333334 0.6666667,-0.666667 0.6666667,0.666667 -0.3333333,1 H 5.3333335"
         style="fill:#000000;fill-opacity:1;stroke-width:1.33333" />
      <path
         id="path830"
         d="m 34.666668,14.666667 1,0.333333 0.666666,0.666667 -0.666666,0.666667 -1,-0.333334"
         style="fill:#000000;fill-opacity:1;stroke-width:1.33333" />
      <path
         id="path828"
         d="m 33.333334,14.666667 h 1.333334 V 16 h -1.333334"
         style="fill:#000000;fill-opacity:1;stroke-width:1.33333" />
      <path
         id="path826"
         d="m 32.000001,14.666667 h 1.333333 V 16 h -1.333333"
         style="fill:#000000;fill-opacity:1;stroke-width:1.33333" />
      <path
         id="path824"
         d="m 30.666668,14.666667 h 1.333333 V 16 h -1.333333"
         style="fill:#000000;fill-opacity:1;stroke-width:1.33333" />
      <path
         id="path822"
         d="m 29.333334,14.666667 h 1.333334 V 16 h -1.333334"
         style="fill:#000000;fill-opacity:1;stroke-width:1.33333" />
      <path
         id="path820"
         d="m 27.666668,15 0.666666,-0.666666 1,0.333333 V 16 h -1.333333"
         style="fill:#000000;fill-opacity:1;stroke-width:1.33333" />
      <path
         id="path818"
         d="m 26.666668,14.666667 1,0.333333 0.333333,1 h -1.333333"
         style="fill:#000000;fill-opacity:1;stroke-width:1.33333" />
      <path
         id="path816"
         d="m 25.333334,14.666667 h 1.333334 V 16 h -1.333334"
         style="fill:#000000;fill-opacity:1;stroke-width:1.33333" />
      <path
         id="path814"
         d="m 24.000001,14.666667 h 1.333333 V 16 h -1.333333"
         style="fill:#000000;fill-opacity:1;stroke-width:1.33333" />
      <path
         id="path804"
         d="m 17.333334,14.666667 h 1.333333 V 16 h -1.333333"
         style="fill:#000000;fill-opacity:1;stroke-width:1.33333" />
      <path
         id="path802"
         d="m 16,14.666667 h 1.333334 V 16 H 16"
         style="fill:#000000;fill-opacity:1;stroke-width:1.33333" />
      <path
         id="path800"
         d="m 15,15 1,-0.333333 V 16 h -1.333333"
         style="fill:#000000;fill-opacity:1;stroke-width:1.33333" />
      <path
         id="path798"
         d="m 13.333334,14.666667 1,-0.333333 L 15,15 14.666667,16 h -1.333333"
         style="fill:#000000;fill-opacity:1;stroke-width:1.33333" />
      <path
         id="path796"
         d="m 12,14.666667 h 1.333334 V 16 H 12"
         style="fill:#000000;fill-opacity:1;stroke-width:1.33333" />
      <path
         id="path794"
         d="M 10.666667,14.666667 H 12 V 16 h -1.333333"
         style="fill:#000000;fill-opacity:1;stroke-width:1.33333" />
      <path
         id="path792"
         d="M 9.3333336,14.666667 H 10.666667 V 16 H 9.3333336"
         style="fill:#000000;fill-opacity:1;stroke-width:1.33333" />
      <path
         id="path790"
         d="M 8.0000002,14.666667 H 9.3333336 V 16 H 8.0000002"
         style="fill:#000000;fill-opacity:1;stroke-width:1.33333" />
      <path
         id="path788"
         d="m 7.0000002,15 1,-0.333333 V 16 l -1,0.333334 -0.6666667,-0.666667"
         style="fill:#000000;fill-opacity:1;stroke-width:1.33333" />
      <path
         id="path754"
         d="m 26.666668,13.333334 h 1.333333 l 0.333333,1 L 27.666668,15 l -1,-0.333333"
         style="fill:#000000;fill-opacity:1;stroke-width:1.33333" />
      <path
         id="path752"
         d="m 25.333334,13.333334 h 1.333334 v 1.333333 h -1.333334"
         style="fill:#000000;fill-opacity:1;stroke-width:1.33333" />
      <path
         id="path750"
         d="m 24.000001,13.333334 h 1.333333 v 1.333333 h -1.333333"
         style="fill:#000000;fill-opacity:1;stroke-width:1.33333" />
      <path
         id="path740"
         d="m 17.333334,13.333334 h 1.333333 v 1.333333 h -1.333333"
         style="fill:#000000;fill-opacity:1;stroke-width:1.33333" />
      <path
         id="path738"
         d="m 16,13.333334 h 1.333334 v 1.333333 H 16"
         style="fill:#000000;fill-opacity:1;stroke-width:1.33333" />
      <path
         id="path736"
         d="M 14.666667,13.333334 H 16 v 1.333333 L 15,15 14.333334,14.333334"
         style="fill:#000000;fill-opacity:1;stroke-width:1.33333" />
      <path
         id="path690"
         d="m 26.666668,12 h 1.333333 v 1.333334 h -1.333333"
         style="fill:#000000;fill-opacity:1;stroke-width:1.33333" />
      <path
         id="path688"
         d="m 25.333334,12 h 1.333334 v 1.333334 h -1.333334"
         style="fill:#000000;fill-opacity:1;stroke-width:1.33333" />
      <path
         id="path686"
         d="m 24.000001,12 h 1.333333 v 1.333334 h -1.333333"
         style="fill:#000000;fill-opacity:1;stroke-width:1.33333" />
      <path
         id="path676"
         d="m 17.333334,12 h 1.333333 v 1.333334 h -1.333333"
         style="fill:#000000;fill-opacity:1;stroke-width:1.33333" />
      <path
         id="path674"
         d="m 16,12 h 1.333334 v 1.333334 H 16"
         style="fill:#000000;fill-opacity:1;stroke-width:1.33333" />
      <path
         id="path672"
         d="M 14.666667,12 H 16 v 1.333334 h -1.333333"
         style="fill:#000000;fill-opacity:1;stroke-width:1.33333" />
      <path
         id="path626"
         d="m 26.666668,10.666667 h 1.333333 V 12 h -1.333333"
         style="fill:#000000;fill-opacity:1;stroke-width:1.33333" />
      <path
         id="path624"
         d="m 25.333334,10.666667 h 1.333334 V 12 h -1.333334"
         style="fill:#000000;fill-opacity:1;stroke-width:1.33333" />
      <path
         id="path622"
         d="m 24.000001,10.666667 h 1.333333 V 12 h -1.333333"
         style="fill:#000000;fill-opacity:1;stroke-width:1.33333" />
      <path
         id="path612"
         d="m 17.333334,10.666667 h 1.333333 V 12 h -1.333333"
         style="fill:#000000;fill-opacity:1;stroke-width:1.33333" />
      <path
         id="path610"
         d="m 16,10.666667 h 1.333334 V 12 H 16"
         style="fill:#000000;fill-opacity:1;stroke-width:1.33333" />
      <path
         id="path608"
         d="M 14.666667,10.666667 H 16 V 12 h -1.333333"
         style="fill:#000000;fill-opacity:1;stroke-width:1.33333" />
      <path
         id="path562"
         d="m 26.666668,9.3333336 h 1.333333 v 1.3333334 h -1.333333"
         style="fill:#000000;fill-opacity:1;stroke-width:1.33333" />
      <path
         id="path560"
         d="m 25.333334,9.3333336 h 1.333334 v 1.3333334 h -1.333334"
         style="fill:#000000;fill-opacity:1;stroke-width:1.33333" />
      <path
         id="path558"
         d="m 24.000001,9.3333336 h 1.333333 v 1.3333334 h -1.333333"
         style="fill:#000000;fill-opacity:1;stroke-width:1.33333" />
      <path
         id="path548"
         d="m 17.333334,9.3333336 h 1.333333 v 1.3333334 h -1.333333"
         style="fill:#000000;fill-opacity:1;stroke-width:1.33333" />
      <path
         id="path546"
         d="m 16,9.3333336 h 1.333334 V 10.666667 H 16"
         style="fill:#000000;fill-opacity:1;stroke-width:1.33333" />
      <path
         id="path544"
         d="M 14.666667,9.3333336 H 16 v 1.3333334 h -1.333333"
         style="fill:#000000;fill-opacity:1;stroke-width:1.33333" />
      <path
         id="path498"
         d="m 26.666668,8.0000002 h 1.333333 v 1.3333334 h -1.333333"
         style="fill:#000000;fill-opacity:1;stroke-width:1.33333" />
      <path
         id="path496"
         d="m 25.333334,8.0000002 h 1.333334 v 1.3333334 h -1.333334"
         style="fill:#000000;fill-opacity:1;stroke-width:1.33333" />
      <path
         id="path494"
         d="m 24.000001,8.0000002 h 1.333333 v 1.3333334 h -1.333333"
         style="fill:#000000;fill-opacity:1;stroke-width:1.33333" />
      <path
         id="path484"
         d="m 17.333334,8.0000002 h 1.333333 v 1.3333334 h -1.333333"
         style="fill:#000000;fill-opacity:1;stroke-width:1.33333" />
      <path
         id="path482"
         d="m 16,8.0000002 h 1.333334 V 9.3333336 H 16"
         style="fill:#000000;fill-opacity:1;stroke-width:1.33333" />
      <path
         id="path480"
         d="M 14.666667,8.0000002 H 16 v 1.3333334 h -1.333333"
         style="fill:#000000;fill-opacity:1;stroke-width:1.33333" />
      <path
         id="path434"
         d="m 26.333334,7.0000002 0.666667,-0.6666667 0.666667,0.6666667 0.333333,1 h -1.333333"
         style="fill:#000000;fill-opacity:1;stroke-width:1.33333" />
      <path
         id="path432"
         d="m 25.333334,6.6666669 1,0.3333333 0.333334,1 h -1.333334"
         style="fill:#000000;fill-opacity:1;stroke-width:1.33333" />
      <path
         id="path430"
         d="m 24.000001,6.6666669 h 1.333333 v 1.3333333 h -1.333333"
         style="fill:#000000;fill-opacity:1;stroke-width:1.33333" />
      <path
         id="path420"
         d="m 17.333334,6.6666669 h 1.333333 v 1.3333333 h -1.333333"
         style="fill:#000000;fill-opacity:1;stroke-width:1.33333" />
      <path
         id="path418"
         d="m 16.333334,7.0000002 1,-0.3333333 V 8.0000002 H 16"
         style="fill:#000000;fill-opacity:1;stroke-width:1.33333" />
      <path
         id="path416"
         d="m 15,7.0000002 0.666667,-0.6666667 0.666667,0.6666667 -0.333334,1 h -1.333333"
         style="fill:#000000;fill-opacity:1;stroke-width:1.33333" />
      <path
         id="path368"
         d="m 25.333334,5.3333335 1,0.3333333 0.666667,0.6666667 -0.666667,0.6666667 -1,-0.3333333"
         style="fill:#000000;fill-opacity:1;stroke-width:1.33333" />
      <path
         id="path366"
         d="m 24.333334,5.6666668 1,-0.3333333 v 1.3333334 h -1.333333"
         style="fill:#000000;fill-opacity:1;stroke-width:1.33333" />
      <path
         id="path356"
         d="m 17.333334,5.3333335 1,0.3333333 0.333333,1.0000001 h -1.333333"
         style="fill:#000000;fill-opacity:1;stroke-width:1.33333" />
      <path
         id="path354"
         d="m 16.333334,5.6666668 1,-0.3333333 v 1.3333334 l -1,0.3333333 -0.666667,-0.6666667"
         style="fill:#000000;fill-opacity:1;stroke-width:1.33333" />
    </g>
  </g>
</svg>
